<svg xmlns="http://www.w3.org/2000/svg" xmlns:xlink="http://www.w3.org/1999/xlink" width="500" zoomAndPan="magnify" viewBox="0 0 375 374.999991" height="500" preserveAspectRatio="xMidYMid meet" version="1.0"><defs><g/><clipPath id="c42039d53a"><path d="M 50.382812 50.382812 L 324.882812 50.382812 L 324.882812 324.882812 L 50.382812 324.882812 Z M 50.382812 50.382812 " clip-rule="nonzero"/></clipPath><clipPath id="6a4c553a9a"><path d="M 59.722656 58.78125 L 313.191406 58.78125 L 313.191406 238 L 59.722656 238 Z M 59.722656 58.78125 " clip-rule="nonzero"/></clipPath><clipPath id="8db2779d7c"><path d="M 67.0625 164.8125 L 197.433594 164.8125 L 197.433594 261.265625 L 67.0625 261.265625 Z M 67.0625 164.8125 " clip-rule="nonzero"/></clipPath></defs><g clip-path="url(#c42039d53a)"><path fill="#0501b3" d="M 187.632812 50.382812 C 111.832031 50.382812 50.382812 111.832031 50.382812 187.632812 C 50.382812 263.433594 111.832031 324.882812 187.632812 324.882812 C 263.433594 324.882812 324.882812 263.433594 324.882812 187.632812 C 324.882812 111.832031 263.433594 50.382812 187.632812 50.382812 " fill-opacity="1" fill-rule="nonzero"/></g><g clip-path="url(#6a4c553a9a)"><path fill="#00009b" d="M 186.457031 58.777344 C 256.453125 58.777344 313.191406 115.433594 313.191406 185.320312 C 313.191406 201.261719 310.234375 216.539062 304.828125 230.617188 L 302.101562 237.710938 L 70.8125 237.710938 L 68.085938 230.617188 C 62.679688 216.539062 59.722656 201.261719 59.722656 185.320312 C 59.722656 115.433594 116.464844 58.777344 186.457031 58.777344 " fill-opacity="1" fill-rule="nonzero"/></g><path fill="#ffffff" d="M 70.792969 185.320312 C 70.792969 121.535156 122.574219 69.828125 186.457031 69.828125 C 250.339844 69.828125 302.121094 121.535156 302.121094 185.320312 C 302.121094 199.886719 299.421875 213.824219 294.492188 226.660156 L 78.421875 226.660156 C 73.492188 213.824219 70.792969 199.886719 70.792969 185.320312 " fill-opacity="1" fill-rule="nonzero"/><path fill="#c990fc" d="M 186.457031 75.355469 C 247.28125 75.355469 296.589844 124.589844 296.589844 185.320312 C 296.589844 197.867188 294.484375 209.914062 290.617188 221.132812 L 82.296875 221.132812 C 78.425781 209.914062 76.328125 197.867188 76.328125 185.320312 C 76.328125 124.589844 125.632812 75.355469 186.457031 75.355469 " fill-opacity="1" fill-rule="nonzero"/><path fill="#ffffff" d="M 200.117188 97.75 C 200.117188 97.75 202.664062 89.394531 207.949219 88.117188 C 213.238281 86.839844 224.335938 87.570312 229.257812 94.660156 C 234.179688 101.753906 238.015625 107.386719 246.566406 112.300781 C 255.121094 117.214844 262.964844 116.835938 268.425781 121.207031 C 273.882812 125.570312 292.828125 149.949219 292.828125 149.949219 L 296.832031 164.496094 L 298.101562 175.222656 C 298.101562 175.222656 293.554688 166.5 286.636719 163.949219 C 279.71875 161.394531 268.253906 149.390625 264.964844 143.027344 C 261.675781 136.664062 260.957031 133.746094 252.574219 128.480469 C 244.195312 123.210938 241.109375 123.769531 235.640625 117.03125 C 230.171875 110.292969 226.539062 102.117188 220.886719 98.296875 C 215.234375 94.480469 215.234375 93.75 211.957031 94.296875 C 208.679688 94.84375 209.230469 98.480469 209.230469 98.480469 L 200.117188 97.75 " fill-opacity="1" fill-rule="evenodd"/><path fill="#00009b" d="M 220.371094 120.738281 C 220.371094 116.410156 231.859375 115.875 231.859375 121.785156 L 231.859375 165.699219 L 220.371094 165.699219 L 220.371094 120.738281 " fill-opacity="1" fill-rule="evenodd"/><path fill="#00009b" d="M 197.964844 99.027344 C 197.964844 94.328125 215.328125 93.746094 215.328125 100.167969 L 215.328125 147.878906 L 197.964844 147.878906 L 197.964844 99.027344 " fill-opacity="1" fill-rule="evenodd"/><path fill="#00009b" d="M 288.691406 226.660156 C 288.960938 218.488281 289.210938 203.113281 289.171875 195.085938 L 300.613281 204.027344 C 299.335938 211.863281 297.265625 219.4375 294.492188 226.660156 L 288.691406 226.660156 " fill-opacity="1" fill-rule="nonzero"/><path fill="#00009b" d="M 171.757812 101.777344 L 290.277344 195.96875 C 290.320312 204.082031 290.472656 212.226562 290.199219 220.335938 L 147.078125 173.046875 L 171.757812 101.777344 " fill-opacity="1" fill-rule="evenodd"/><path fill="#00009b" d="M 123.328125 136.804688 C 123.328125 115.53125 140.597656 98.289062 161.898438 98.289062 C 183.203125 98.289062 200.472656 115.53125 200.472656 136.804688 C 200.472656 158.074219 183.203125 175.320312 161.898438 175.320312 C 140.597656 175.320312 123.328125 158.074219 123.328125 136.804688 " fill-opacity="1" fill-rule="nonzero"/><g clip-path="url(#8db2779d7c)"><path fill="#00009b" d="M 140.101562 164.921875 L 119.570312 171.097656 L 118.785156 176.304688 L 67.167969 221.136719 L 67.167969 228.238281 L 69.265625 257.308594 L 79.332031 261.265625 L 197.121094 231.589844 L 191.890625 173.851562 L 140.101562 164.921875 " fill-opacity="1" fill-rule="evenodd"/></g><path fill="#00009b" d="M 284.863281 200.375 L 284.890625 175.664062 L 262.726562 156.4375 L 235.085938 157.367188 L 242.867188 180.277344 L 284.863281 200.375 " fill-opacity="1" fill-rule="evenodd"/><path fill="#ffffff" d="M 179.230469 108.710938 C 188.65625 114.523438 194.9375 124.929688 194.9375 136.804688 C 194.9375 155.023438 180.148438 169.792969 161.898438 169.792969 C 153.234375 169.792969 145.347656 166.460938 139.453125 161.011719 C 144.488281 164.113281 150.425781 165.90625 156.78125 165.90625 C 175.03125 165.90625 189.820312 151.136719 189.820312 132.917969 C 189.820312 123.351562 185.742188 114.738281 179.230469 108.710938 " fill-opacity="1" fill-rule="nonzero"/><path fill="#ffffff" d="M 150.753906 117.597656 C 157.527344 117.597656 163.019531 123.078125 163.019531 129.839844 C 163.019531 136.601562 157.527344 142.085938 150.753906 142.085938 C 143.984375 142.085938 138.492188 136.601562 138.492188 129.839844 C 138.492188 123.078125 143.984375 117.597656 150.753906 117.597656 " fill-opacity="1" fill-rule="nonzero"/><path fill="#ffffff" d="M 256.285156 174.160156 C 260.101562 177.101562 260.105469 182.710938 258.019531 187.679688 L 240.949219 175.367188 L 218.597656 177.78125 L 189.261719 163.957031 C 196.191406 156.992188 200.472656 147.398438 200.472656 136.804688 C 200.472656 134.792969 200.320312 132.8125 200.019531 130.882812 L 256.285156 174.160156 " fill-opacity="1" fill-rule="evenodd"/><path fill="#00009b" d="M 216.089844 148.699219 C 216.089844 144.164062 215.125 139.851562 213.390625 135.960938 L 216.175781 137.472656 C 217.867188 141.324219 218.808594 145.585938 218.808594 150.0625 C 218.808594 167.390625 204.738281 181.4375 187.382812 181.4375 C 181.773438 181.4375 176.511719 179.972656 171.953125 177.402344 C 175.839844 179.121094 180.140625 180.074219 184.664062 180.074219 C 202.019531 180.074219 216.089844 166.027344 216.089844 148.699219 " fill-opacity="1" fill-rule="nonzero"/><path fill="#00009b" d="M 220.550781 141.660156 C 229.003906 145.398438 234.902344 153.847656 234.902344 163.675781 C 234.902344 176.964844 224.113281 187.738281 210.800781 187.738281 C 206.5 187.738281 202.464844 186.613281 198.96875 184.644531 C 201.949219 185.960938 205.246094 186.691406 208.714844 186.691406 C 222.027344 186.691406 232.816406 175.917969 232.816406 162.628906 C 232.816406 153.628906 227.875 145.789062 220.550781 141.660156 " fill-opacity="1" fill-rule="nonzero"/><path fill="#00009b" d="M 192.875 231.496094 L 294.269531 226.644531 L 295.136719 213.164062 L 187.140625 182.652344 L 192.875 231.496094 " fill-opacity="1" fill-rule="evenodd"/><path fill="#ffffff" d="M 196.953125 229.75 L 79.902344 256.65625 L 81.804688 248.195312 L 194.449219 227.265625 L 196.953125 229.75 " fill-opacity="1" fill-rule="evenodd"/><path fill="#ffffff" d="M 183.082031 183.839844 L 188.207031 224.222656 L 181.5625 227.945312 L 181.410156 183.597656 L 183.082031 183.839844 " fill-opacity="1" fill-rule="evenodd"/><path fill="#ffffff" d="M 177.890625 183.226562 L 175.625 225.730469 L 166.996094 230.035156 L 176.109375 182.871094 L 177.890625 183.226562 " fill-opacity="1" fill-rule="evenodd"/><path fill="#ffffff" d="M 170.496094 182.6875 L 161.410156 228.292969 L 149.753906 233.179688 L 168.164062 182.222656 L 170.496094 182.6875 " fill-opacity="1" fill-rule="evenodd"/><path fill="#ffffff" d="M 161.875 182.457031 L 142.335938 232.484375 L 129.152344 237.1875 L 159.488281 181.785156 L 161.875 182.457031 " fill-opacity="1" fill-rule="evenodd"/><path fill="#ffffff" d="M 152.375 181.785156 L 122.472656 235.433594 L 105.707031 240.992188 L 149.175781 181.875 L 152.375 181.785156 " fill-opacity="1" fill-rule="evenodd"/><path fill="#ffffff" d="M 141.125 181.351562 L 98.0625 240.003906 L 82.1875 245.195312 L 139.027344 180.878906 L 141.125 181.351562 " fill-opacity="1" fill-rule="evenodd"/><path fill="#ffffff" d="M 196.210938 183.304688 L 196.429688 176.710938 L 121.140625 172.195312 L 121.296875 175.050781 L 194.039062 178.234375 L 194.039062 181.132812 L 196.210938 183.304688 " fill-opacity="1" fill-rule="evenodd"/><path fill="#ffffff" d="M 279.757812 205 L 240.476562 177.492188 L 240.335938 180.226562 L 279.617188 206.609375 L 279.757812 205 " fill-opacity="1" fill-rule="evenodd"/><path fill="#ffffff" d="M 200.316406 185.4375 C 205.3125 188.570312 204.195312 196.464844 198.597656 198.109375 L 223.992188 203.34375 C 226.457031 202.898438 227.722656 197.441406 224.90625 196.175781 L 200.316406 185.4375 " fill-opacity="1" fill-rule="evenodd"/><path fill="#ffffff" d="M 263.738281 163.578125 L 263.492188 191.789062 L 280.460938 203.363281 L 281.449219 178.585938 L 279.550781 177.230469 L 278.671875 198.746094 L 274.488281 195.71875 L 275.328125 173.261719 L 273.214844 171.59375 L 272.191406 193.425781 L 267.050781 189.96875 L 267.601562 166.308594 L 263.738281 163.578125 " fill-opacity="1" fill-rule="evenodd"/><path fill="#ffffff" d="M 281.261719 226.3125 C 281.167969 226.332031 281.074219 226.339844 280.976562 226.339844 C 279.359375 226.339844 278.054688 223.945312 278.054688 220.996094 C 278.054688 218.046875 279.359375 215.652344 280.976562 215.652344 C 281.171875 215.652344 281.363281 215.6875 281.546875 215.753906 C 280.066406 216.011719 278.902344 218.296875 278.902344 221.074219 C 278.902344 223.667969 279.917969 225.828125 281.261719 226.3125 " fill-opacity="1" fill-rule="nonzero"/><path fill="#ffffff" d="M 218.808594 180.902344 L 189.222656 167.082031 L 188.9375 169.652344 L 218.699219 181.796875 L 218.808594 180.902344 " fill-opacity="1" fill-rule="evenodd"/><path fill="#ffffff" d="M 206.28125 180.886719 L 206.167969 185.867188 L 218.078125 190.652344 L 218.554688 187.382812 L 206.28125 180.886719 " fill-opacity="1" fill-rule="evenodd"/><path fill="#ffffff" d="M 236.273438 202.914062 L 236.382812 221.460938 C 235.546875 222.617188 234.46875 222.941406 233.144531 222.433594 L 233.359375 202.375 C 234.101562 201.441406 235.074219 201.621094 236.273438 202.914062 " fill-opacity="1" fill-rule="evenodd"/><path fill="#ffffff" d="M 234.542969 185.554688 L 235.730469 185.554688 L 235.730469 199.464844 L 234.542969 199.464844 L 234.542969 185.554688 " fill-opacity="1" fill-rule="nonzero"/><path fill="#ffffff" d="M 222.882812 185.015625 L 224.074219 185.015625 L 224.074219 192.242188 L 222.882812 192.242188 L 222.882812 185.015625 " fill-opacity="1" fill-rule="nonzero"/><path fill="#ffffff" d="M 197.285156 185.742188 C 199.871094 185.992188 201.902344 188.425781 201.902344 191.398438 C 201.902344 194.53125 199.640625 197.070312 196.84375 197.070312 C 196.230469 197.070312 195.640625 196.949219 195.097656 196.722656 C 195.242188 196.734375 195.386719 196.746094 195.535156 196.746094 C 198.328125 196.746094 200.589844 194.203125 200.589844 191.066406 C 200.589844 188.625 199.214844 186.539062 197.285156 185.742188 " fill-opacity="1" fill-rule="nonzero"/><path fill="#00009b" d="M 227.597656 175.9375 L 192.675781 154.824219 L 188.082031 159.414062 L 220.683594 176.929688 L 227.597656 175.9375 " fill-opacity="1" fill-rule="evenodd"/><path fill="#00009b" d="M 260.367188 180.523438 L 197.601562 131.730469 L 197.601562 138.136719 L 260.699219 182.34375 L 260.367188 180.523438 " fill-opacity="1" fill-rule="evenodd"/><path fill="#ffffff" d="M 285.644531 195.535156 L 285.25 201.609375 L 294.5 207.347656 L 294.632812 202.792969 L 285.644531 195.535156 " fill-opacity="1" fill-rule="evenodd"/><path fill="#ffffff" d="M 289.71875 227.054688 C 289.652344 227.066406 289.582031 227.074219 289.511719 227.074219 C 288.324219 227.074219 287.363281 225.316406 287.363281 223.148438 C 287.363281 220.976562 288.324219 219.21875 289.511719 219.21875 C 289.65625 219.21875 289.796875 219.246094 289.933594 219.292969 C 288.839844 219.484375 287.988281 221.160156 287.988281 223.203125 C 287.988281 225.109375 288.734375 226.699219 289.71875 227.054688 " fill-opacity="1" fill-rule="nonzero"/><path fill="#ffffff" d="M 295.511719 228.03125 C 295.457031 228.039062 295.398438 228.042969 295.34375 228.042969 C 294.371094 228.042969 293.582031 226.605469 293.582031 224.832031 C 293.582031 223.054688 294.371094 221.617188 295.34375 221.617188 C 295.457031 221.617188 295.574219 221.636719 295.683594 221.679688 C 294.792969 221.832031 294.09375 223.207031 294.09375 224.878906 C 294.09375 226.4375 294.703125 227.738281 295.511719 228.03125 " fill-opacity="1" fill-rule="nonzero"/><path fill="#ffffff" d="M 172.757812 132.507812 C 172.757812 142.324219 164.792969 150.277344 154.960938 150.277344 C 150.945312 150.277344 147.242188 148.949219 144.261719 146.707031 C 146.628906 147.871094 149.292969 148.523438 152.109375 148.523438 C 161.9375 148.523438 169.90625 140.566406 169.90625 130.753906 C 169.90625 124.953125 167.117188 119.796875 162.8125 116.554688 C 168.703125 119.449219 172.757812 125.503906 172.757812 132.507812 " fill-opacity="1" fill-rule="nonzero"/><path fill="#ffffff" d="M 296.542969 204.253906 L 296.238281 208.21875 L 297.304688 208.777344 L 297.609375 204.964844 L 296.542969 204.253906 " fill-opacity="1" fill-rule="evenodd"/><path fill="#ffffff" d="M 297.773438 220.042969 L 284.082031 212.371094 L 284.316406 210.328125 L 297.921875 218.550781 L 297.773438 220.042969 " fill-opacity="1" fill-rule="evenodd"/><path fill="#ffffff" d="M 193.425781 190.828125 C 193.425781 189.921875 194.164062 189.183594 195.074219 189.183594 C 195.980469 189.183594 196.71875 189.921875 196.71875 190.828125 C 196.71875 191.734375 195.980469 192.472656 195.074219 192.472656 C 194.164062 192.472656 193.425781 191.734375 193.425781 190.828125 " fill-opacity="1" fill-rule="nonzero"/><path fill="#00009b" d="M 228.855469 202.222656 L 202.203125 194.308594 L 200.324219 196.773438 L 227.960938 203.664062 L 228.855469 202.222656 " fill-opacity="1" fill-rule="evenodd"/><path fill="#00009b" d="M 220.625 193.523438 C 222.191406 194.4375 223.253906 196.175781 223.253906 198.171875 C 223.253906 201.121094 220.933594 203.511719 218.070312 203.511719 C 216.726562 203.511719 215.5 202.980469 214.578125 202.117188 C 215.332031 202.554688 216.203125 202.808594 217.128906 202.808594 C 219.992188 202.808594 222.3125 200.417969 222.3125 197.464844 C 222.3125 195.902344 221.660156 194.5 220.625 193.523438 " fill-opacity="1" fill-rule="nonzero"/><path fill="#00009b" d="M 218.378906 192.496094 C 219.945312 193.414062 221.007812 195.152344 221.007812 197.144531 C 221.007812 200.09375 218.6875 202.484375 215.824219 202.484375 C 214.476562 202.484375 213.253906 201.957031 212.328125 201.089844 C 213.082031 201.53125 213.957031 201.78125 214.882812 201.78125 C 217.746094 201.78125 220.066406 199.390625 220.066406 196.441406 C 220.066406 194.878906 219.414062 193.472656 218.378906 192.496094 " fill-opacity="1" fill-rule="nonzero"/><path fill="#00009b" d="M 126.007812 178.554688 L 190.476562 178.554688 L 190.476562 184.355469 L 126.007812 184.355469 L 126.007812 178.554688 " fill-opacity="1" fill-rule="nonzero"/><path fill="#ffffff" d="M 186.199219 185.191406 L 192.796875 224.976562 L 195.898438 221.878906 L 187.425781 185.082031 L 186.199219 185.191406 " fill-opacity="1" fill-rule="evenodd"/><path fill="#ffffff" d="M 210.359375 230.15625 C 210.117188 230.195312 209.871094 230.214844 209.625 230.214844 C 205.417969 230.214844 202.003906 223.988281 202.003906 216.304688 C 202.003906 208.621094 205.417969 202.390625 209.625 202.390625 C 210.132812 202.390625 210.628906 202.480469 211.109375 202.652344 C 207.246094 203.328125 204.222656 209.269531 204.222656 216.503906 C 204.222656 223.261719 206.863281 228.890625 210.359375 230.15625 " fill-opacity="1" fill-rule="nonzero"/><path fill="#ffffff" d="M 210.339844 216.289062 C 210.339844 214.359375 211.058594 212.796875 211.949219 212.796875 C 212.839844 212.796875 213.5625 214.359375 213.5625 216.289062 C 213.5625 218.214844 212.839844 219.773438 211.949219 219.773438 C 211.058594 219.773438 210.339844 218.214844 210.339844 216.289062 " fill-opacity="1" fill-rule="nonzero"/><path fill="#ffffff" d="M 225.597656 228.644531 C 225.425781 228.679688 225.253906 228.695312 225.078125 228.695312 C 222.097656 228.695312 219.683594 223.855469 219.683594 217.886719 C 219.683594 211.917969 222.097656 207.082031 225.078125 207.082031 C 225.4375 207.082031 225.789062 207.152344 226.128906 207.285156 C 223.394531 207.808594 221.253906 212.425781 221.253906 218.042969 C 221.253906 223.292969 223.121094 227.664062 225.597656 228.644531 " fill-opacity="1" fill-rule="nonzero"/><path fill="#ffffff" d="M 225.585938 217.875 C 225.585938 216.378906 226.09375 215.164062 226.726562 215.164062 C 227.355469 215.164062 227.867188 216.378906 227.867188 217.875 C 227.867188 219.371094 227.355469 220.585938 226.726562 220.585938 C 226.09375 220.585938 225.585938 219.371094 225.585938 217.875 " fill-opacity="1" fill-rule="nonzero"/><path fill="#ffffff" d="M 251.03125 229.65625 C 250.746094 229.710938 250.457031 229.738281 250.164062 229.738281 C 245.195312 229.738281 241.171875 221.457031 241.171875 211.238281 C 241.171875 201.019531 245.195312 192.738281 250.164062 192.738281 C 250.765625 192.738281 251.351562 192.859375 251.917969 193.089844 C 247.355469 193.984375 243.789062 201.886719 243.789062 211.503906 C 243.789062 220.488281 246.902344 227.980469 251.03125 229.65625 " fill-opacity="1" fill-rule="nonzero"/><path fill="#ffffff" d="M 252.269531 194.773438 C 252.554688 194.6875 252.847656 194.644531 253.140625 194.644531 C 256.988281 194.644531 260.109375 202.199219 260.109375 211.519531 C 260.109375 220.839844 256.988281 228.398438 253.140625 228.398438 C 252.566406 228.398438 252.007812 228.230469 251.472656 227.910156 C 254.910156 226.875 257.574219 219.773438 257.574219 211.164062 C 257.574219 203.234375 255.316406 196.582031 252.269531 194.773438 " fill-opacity="1" fill-rule="nonzero"/><path fill="#ffffff" d="M 251.011719 211.21875 C 251.011719 208.65625 251.863281 206.582031 252.910156 206.582031 C 253.960938 206.582031 254.8125 208.65625 254.8125 211.21875 C 254.8125 213.777344 253.960938 215.855469 252.910156 215.855469 C 251.863281 215.855469 251.011719 213.777344 251.011719 211.21875 " fill-opacity="1" fill-rule="nonzero"/><path fill="#ffffff" d="M 270.726562 229.167969 C 270.527344 229.203125 270.324219 229.222656 270.121094 229.222656 C 266.636719 229.222656 263.8125 223.417969 263.8125 216.253906 C 263.8125 209.089844 266.636719 203.28125 270.121094 203.28125 C 270.539062 203.28125 270.953125 203.367188 271.351562 203.527344 C 268.152344 204.15625 265.648438 209.695312 265.648438 216.441406 C 265.648438 222.738281 267.832031 227.988281 270.726562 229.167969 " fill-opacity="1" fill-rule="nonzero"/><path fill="#ffffff" d="M 271.597656 204.707031 C 271.796875 204.648438 272 204.617188 272.207031 204.617188 C 274.90625 204.617188 277.089844 209.914062 277.089844 216.449219 C 277.089844 222.984375 274.90625 228.28125 272.207031 228.28125 C 271.804688 228.28125 271.410156 228.164062 271.039062 227.941406 C 273.449219 227.214844 275.3125 222.234375 275.3125 216.203125 C 275.3125 210.640625 273.730469 205.976562 271.597656 204.707031 " fill-opacity="1" fill-rule="nonzero"/><path fill="#ffffff" d="M 270.710938 216.238281 C 270.710938 214.441406 271.308594 212.988281 272.046875 212.988281 C 272.78125 212.988281 273.378906 214.441406 273.378906 216.238281 C 273.378906 218.035156 272.78125 219.488281 272.046875 219.488281 C 271.308594 219.488281 270.710938 218.035156 270.710938 216.238281 " fill-opacity="1" fill-rule="nonzero"/><path fill="#ffffff" d="M 252.476562 197.050781 L 252.667969 205.320312 L 251.714844 205.703125 L 251.332031 196.953125 L 252.476562 197.050781 " fill-opacity="1" fill-rule="evenodd"/><path fill="#ffffff" d="M 256.667969 202.835938 L 254.859375 206.652344 L 255.242188 207.035156 L 257.085938 204.957031 L 256.667969 202.835938 " fill-opacity="1" fill-rule="evenodd"/><path fill="#ffffff" d="M 253.714844 217.058594 L 255.664062 224.429688 L 254.574219 225.519531 L 253.238281 218.296875 L 253.714844 217.058594 " fill-opacity="1" fill-rule="evenodd"/><path fill="#ffffff" d="M 251.238281 218.203125 L 249.574219 226.660156 L 248.527344 224.335938 L 250.910156 216.964844 L 251.238281 218.203125 " fill-opacity="1" fill-rule="evenodd"/><path fill="#ffffff" d="M 249.765625 213.402344 L 246.003906 218.582031 L 246.003906 216.679688 L 250.050781 212.164062 L 249.765625 213.402344 " fill-opacity="1" fill-rule="evenodd"/><path fill="#ffffff" d="M 249.957031 207.933594 L 247.097656 200.234375 L 246.480469 201.472656 L 249.933594 209.042969 L 249.957031 207.933594 " fill-opacity="1" fill-rule="evenodd"/><path fill="#ffffff" d="M 274.71875 210.546875 L 273.21875 213.507812 L 273.445312 214.796875 L 275.042969 212.296875 L 274.71875 210.546875 " fill-opacity="1" fill-rule="evenodd"/><path fill="#ffffff" d="M 273.402344 220.070312 L 274.707031 224.308594 L 273.625 225.148438 L 272.785156 220.394531 L 273.402344 220.070312 " fill-opacity="1" fill-rule="evenodd"/><path fill="#ffffff" d="M 270.933594 221.132812 L 269.085938 226.660156 L 268.359375 224.925781 L 270.5 219.886719 L 270.933594 221.132812 " fill-opacity="1" fill-rule="evenodd"/><path fill="#ffffff" d="M 271.585938 205.972656 L 271.585938 212.203125 L 271.152344 212.203125 L 270.695312 206.257812 L 271.585938 205.972656 " fill-opacity="1" fill-rule="evenodd"/><path fill="#ffffff" d="M 270.171875 214.921875 L 267.050781 211.804688 L 267.035156 212.683594 L 269.890625 215.953125 L 270.171875 214.921875 " fill-opacity="1" fill-rule="evenodd"/><g fill="#c990fc" fill-opacity="1"><g transform="translate(102.785228, 291.328603)"><g><path d="M 9.1875 -2.421875 C 9.1875 -1.960938 9.5 -1.734375 10.125 -1.734375 C 10.457031 -1.734375 10.878906 -1.898438 11.390625 -2.234375 C 11.898438 -2.566406 12.359375 -2.929688 12.765625 -3.328125 C 13.859375 -4.410156 14.476562 -4.953125 14.625 -4.953125 C 14.894531 -4.953125 15.03125 -4.554688 15.03125 -3.765625 C 15.03125 -2.984375 14.785156 -2.445312 14.296875 -2.15625 C 12.796875 -0.800781 11.632812 0.0195312 10.8125 0.3125 C 10.351562 0.46875 9.84375 0.539062 9.28125 0.53125 C 8.726562 0.519531 8.179688 0.28125 7.640625 -0.1875 C 7.097656 -0.65625 6.828125 -1.226562 6.828125 -1.90625 C 6.828125 -2.582031 7.003906 -3.347656 7.359375 -4.203125 C 7.710938 -5.066406 8.078125 -5.804688 8.453125 -6.421875 C 8.828125 -7.035156 9.285156 -7.75 9.828125 -8.5625 C 10.367188 -9.375 10.65625 -9.878906 10.6875 -10.078125 L 10.65625 -10.109375 C 10.3125 -10.078125 9.453125 -9.394531 8.078125 -8.0625 C 6.710938 -6.726562 5.582031 -5.566406 4.6875 -4.578125 C 3.800781 -3.597656 2.742188 -2.285156 1.515625 -0.640625 C 1.160156 -0.191406 0.875 0.03125 0.65625 0.03125 C 0.4375 0.03125 0.144531 -0.0351562 -0.21875 -0.171875 C -0.59375 -0.316406 -0.820312 -0.421875 -0.90625 -0.484375 C -0.988281 -0.546875 -1.03125 -0.640625 -1.03125 -0.765625 C -1.03125 -0.890625 -0.992188 -1.046875 -0.921875 -1.234375 C -0.847656 -1.421875 -0.773438 -1.570312 -0.703125 -1.6875 C -0.640625 -1.8125 -0.53125 -2 -0.375 -2.25 C -0.21875 -2.5 0.09375 -3.03125 0.5625 -3.84375 C 1.03125 -4.65625 1.742188 -5.867188 2.703125 -7.484375 C 3.671875 -9.097656 4.25 -10.070312 4.4375 -10.40625 C 4.832031 -11.101562 5.15625 -11.609375 5.40625 -11.921875 C 5.875 -12.515625 6.671875 -12.8125 7.796875 -12.8125 C 8.046875 -12.8125 8.171875 -12.65625 8.171875 -12.34375 C 8.171875 -11.851562 7.71875 -10.925781 6.8125 -9.5625 L 6.140625 -8.5625 C 7.960938 -10.582031 9.492188 -11.859375 10.734375 -12.390625 C 11.347656 -12.648438 11.894531 -12.78125 12.375 -12.78125 C 12.863281 -12.78125 13.253906 -12.648438 13.546875 -12.390625 C 13.835938 -12.128906 13.984375 -11.835938 13.984375 -11.515625 C 13.984375 -11.191406 13.867188 -10.804688 13.640625 -10.359375 C 13.421875 -9.921875 13.195312 -9.523438 12.96875 -9.171875 C 12.75 -8.816406 12.457031 -8.375 12.09375 -7.84375 C 11.726562 -7.3125 11.53125 -7.019531 11.5 -6.96875 C 11.46875 -6.925781 11.382812 -6.800781 11.25 -6.59375 C 11.113281 -6.394531 11.015625 -6.242188 10.953125 -6.140625 C 10.890625 -6.046875 10.785156 -5.878906 10.640625 -5.640625 C 10.492188 -5.410156 10.375 -5.21875 10.28125 -5.0625 C 10.195312 -4.90625 10.085938 -4.710938 9.953125 -4.484375 C 9.828125 -4.253906 9.722656 -4.050781 9.640625 -3.875 C 9.566406 -3.707031 9.488281 -3.523438 9.40625 -3.328125 C 9.257812 -2.960938 9.1875 -2.660156 9.1875 -2.421875 Z M 9.1875 -2.421875 "/></g></g></g><g fill="#c990fc" fill-opacity="1"><g transform="translate(115.364573, 291.328603)"><g><path d="M 11.65625 -11.984375 C 11.96875 -11.984375 12.285156 -11.835938 12.609375 -11.546875 C 12.941406 -11.265625 13.109375 -10.832031 13.109375 -10.25 C 13.109375 -9.675781 12.90625 -8.925781 12.5 -8 C 12.09375 -7.070312 11.53125 -6.128906 10.8125 -5.171875 C 10.101562 -4.210938 9.320312 -3.304688 8.46875 -2.453125 C 7.613281 -1.609375 6.691406 -0.914062 5.703125 -0.375 C 4.710938 0.15625 3.8125 0.421875 3 0.421875 C 2.195312 0.421875 1.550781 0.171875 1.0625 -0.328125 C 0.570312 -0.835938 0.328125 -1.546875 0.328125 -2.453125 C 0.328125 -3.367188 0.550781 -4.375 1 -5.46875 C 1.445312 -6.570312 2.019531 -7.546875 2.71875 -8.390625 C 3.425781 -9.234375 4.1875 -9.988281 5 -10.65625 C 6.707031 -12.03125 8.207031 -12.71875 9.5 -12.71875 C 10.070312 -12.71875 10.503906 -12.578125 10.796875 -12.296875 C 10.898438 -12.203125 10.953125 -12.117188 10.953125 -12.046875 L 10.953125 -11.953125 C 11.109375 -11.972656 11.34375 -11.984375 11.65625 -11.984375 Z M 10.0625 -9.890625 L 9.953125 -9.890625 C 9.585938 -9.890625 9.40625 -10.15625 9.40625 -10.6875 C 8.632812 -10.4375 7.828125 -9.992188 6.984375 -9.359375 C 6.148438 -8.734375 5.40625 -7.992188 4.75 -7.140625 C 3.40625 -5.421875 2.722656 -3.96875 2.703125 -2.78125 C 2.703125 -2.195312 2.914062 -1.90625 3.34375 -1.90625 C 3.78125 -1.90625 4.421875 -2.1875 5.265625 -2.75 C 6.117188 -3.3125 6.960938 -4.117188 7.796875 -5.171875 C 8.628906 -6.222656 9.25 -7.132812 9.65625 -7.90625 C 10.070312 -8.675781 10.28125 -9.195312 10.28125 -9.46875 C 10.28125 -9.75 10.207031 -9.890625 10.0625 -9.890625 Z M 10.0625 -9.890625 "/></g></g></g><g fill="#c990fc" fill-opacity="1"><g transform="translate(127.157708, 291.328603)"><g><path d="M 0.96875 0.09375 L 0.203125 0.0625 L -0.078125 0.0625 C -0.179688 0.03125 -0.289062 -0.03125 -0.40625 -0.125 C -0.53125 -0.21875 -0.625 -0.285156 -0.6875 -0.328125 C -0.75 -0.367188 -0.78125 -0.441406 -0.78125 -0.546875 C -0.78125 -0.660156 -0.738281 -0.851562 -0.65625 -1.125 C 1.382812 -5.625 3.359375 -9.222656 5.265625 -11.921875 C 5.472656 -12.210938 5.8125 -12.429688 6.28125 -12.578125 C 6.75 -12.734375 7.203125 -12.8125 7.640625 -12.8125 C 7.898438 -12.8125 8.03125 -12.609375 8.03125 -12.203125 C 8.03125 -12.085938 7.988281 -11.929688 7.90625 -11.734375 C 7.820312 -11.546875 7.613281 -11.226562 7.28125 -10.78125 C 6.945312 -10.34375 6.546875 -9.835938 6.078125 -9.265625 C 5.617188 -8.703125 5.359375 -8.378906 5.296875 -8.296875 C 6.734375 -9.785156 8.03125 -10.894531 9.1875 -11.625 C 10.34375 -12.351562 11.179688 -12.71875 11.703125 -12.71875 C 12.222656 -12.71875 12.617188 -12.566406 12.890625 -12.265625 C 13.171875 -11.972656 13.3125 -11.65625 13.3125 -11.3125 C 13.3125 -10.96875 13.285156 -10.679688 13.234375 -10.453125 C 13.191406 -10.234375 13.109375 -10 12.984375 -9.75 C 12.859375 -9.507812 12.75 -9.300781 12.65625 -9.125 C 12.570312 -8.957031 12.425781 -8.734375 12.21875 -8.453125 C 12.007812 -8.171875 11.863281 -7.976562 11.78125 -7.875 C 11.707031 -7.769531 11.546875 -7.570312 11.296875 -7.28125 C 11.046875 -6.988281 10.910156 -6.828125 10.890625 -6.796875 C 11.191406 -7.085938 11.601562 -7.519531 12.125 -8.09375 C 12.644531 -8.675781 13.085938 -9.160156 13.453125 -9.546875 C 13.816406 -9.929688 14.269531 -10.367188 14.8125 -10.859375 C 15.351562 -11.347656 15.863281 -11.742188 16.34375 -12.046875 C 17.46875 -12.753906 18.613281 -13.109375 19.78125 -13.109375 C 20.175781 -13.109375 20.507812 -12.984375 20.78125 -12.734375 C 21.0625 -12.484375 21.203125 -12.179688 21.203125 -11.828125 C 21.203125 -11.484375 20.773438 -10.644531 19.921875 -9.3125 C 19.078125 -7.988281 18.234375 -6.65625 17.390625 -5.3125 C 16.546875 -3.976562 16.125 -3.140625 16.125 -2.796875 C 16.125 -2.316406 16.210938 -2.03125 16.390625 -1.9375 C 16.566406 -1.851562 16.78125 -1.820312 17.03125 -1.84375 C 17.28125 -1.863281 17.632812 -2.023438 18.09375 -2.328125 C 18.550781 -2.628906 18.957031 -2.941406 19.3125 -3.265625 C 19.882812 -3.796875 20.414062 -4.304688 20.90625 -4.796875 C 21.019531 -4.890625 21.140625 -4.9375 21.265625 -4.9375 C 21.460938 -4.9375 21.582031 -4.785156 21.625 -4.484375 C 21.664062 -4.179688 21.6875 -3.863281 21.6875 -3.53125 C 21.6875 -3.207031 21.65625 -2.984375 21.59375 -2.859375 C 21.289062 -2.273438 20.617188 -1.554688 19.578125 -0.703125 C 18.535156 0.140625 17.539062 0.5625 16.59375 0.5625 C 16.476562 0.5625 16.394531 0.554688 16.34375 0.546875 C 15.257812 0.441406 14.507812 0.148438 14.09375 -0.328125 C 13.675781 -0.816406 13.46875 -1.394531 13.46875 -2.0625 C 13.46875 -2.738281 13.695312 -3.550781 14.15625 -4.5 C 14.613281 -5.457031 15.113281 -6.320312 15.65625 -7.09375 C 16.207031 -7.875 16.707031 -8.578125 17.15625 -9.203125 C 17.613281 -9.828125 17.84375 -10.164062 17.84375 -10.21875 C 17.84375 -10.269531 17.800781 -10.296875 17.71875 -10.296875 C 17.394531 -10.296875 16.671875 -9.773438 15.546875 -8.734375 C 13.628906 -6.929688 11.972656 -5.195312 10.578125 -3.53125 C 10.210938 -3.09375 9.34375 -1.976562 7.96875 -0.1875 C 7.8125 0.0195312 7.5625 0.125 7.21875 0.125 C 6.882812 0.125 6.53125 0.0625 6.15625 -0.0625 C 5.789062 -0.195312 5.609375 -0.367188 5.609375 -0.578125 C 5.609375 -0.679688 6.441406 -2.148438 8.109375 -4.984375 C 9.773438 -7.828125 10.609375 -9.375 10.609375 -9.625 C 10.609375 -9.882812 10.453125 -10.015625 10.140625 -10.015625 C 9.835938 -10.015625 9.203125 -9.550781 8.234375 -8.625 C 5.585938 -6.09375 3.535156 -3.570312 2.078125 -1.0625 C 1.984375 -0.914062 1.796875 -0.6875 1.515625 -0.375 C 1.242188 -0.0625 1.0625 0.09375 0.96875 0.09375 Z M 0.96875 0.09375 "/></g></g></g><g fill="#c990fc" fill-opacity="1"><g transform="translate(146.750038, 291.328603)"><g><path d="M 11.796875 -11.765625 C 11.796875 -11.066406 11.515625 -10.457031 10.953125 -9.9375 C 10.390625 -9.414062 9.753906 -9.15625 9.046875 -9.15625 C 8.816406 -9.15625 8.660156 -9.207031 8.578125 -9.3125 C 8.503906 -9.425781 8.46875 -9.570312 8.46875 -9.75 C 8.46875 -9.925781 8.488281 -10.097656 8.53125 -10.265625 C 8.15625 -10.140625 7.738281 -9.945312 7.28125 -9.6875 C 6.820312 -9.425781 6.253906 -9.035156 5.578125 -8.515625 C 4.910156 -8.003906 4.578125 -7.625 4.578125 -7.375 C 4.578125 -7.289062 4.695312 -7.25 4.9375 -7.25 C 5.1875 -7.25 5.566406 -7.332031 6.078125 -7.5 C 6.597656 -7.675781 6.957031 -7.765625 7.15625 -7.765625 C 7.363281 -7.765625 7.5 -7.753906 7.5625 -7.734375 C 7.695312 -7.660156 7.84375 -7.5 8 -7.25 C 8.15625 -7.007812 8.234375 -6.816406 8.234375 -6.671875 C 8.234375 -6.535156 8.097656 -6.347656 7.828125 -6.109375 C 7.554688 -5.878906 7.25 -5.703125 6.90625 -5.578125 C 6.5625 -5.460938 6.332031 -5.375 6.21875 -5.3125 C 4 -4.070312 2.890625 -3.222656 2.890625 -2.765625 C 2.890625 -1.953125 3.585938 -1.546875 4.984375 -1.546875 C 5.878906 -1.546875 6.773438 -1.828125 7.671875 -2.390625 C 8.441406 -2.867188 9.128906 -3.359375 9.734375 -3.859375 C 10.347656 -4.359375 10.738281 -4.664062 10.90625 -4.78125 C 11.070312 -4.894531 11.195312 -4.953125 11.28125 -4.953125 C 11.550781 -4.953125 11.6875 -4.644531 11.6875 -4.03125 C 11.6875 -3.425781 11.648438 -3.023438 11.578125 -2.828125 C 11.503906 -2.640625 11.289062 -2.40625 10.9375 -2.125 C 8.695312 -0.300781 6.578125 0.609375 4.578125 0.609375 C 3.503906 0.609375 2.648438 0.460938 2.015625 0.171875 C 0.835938 -0.359375 0.25 -1.175781 0.25 -2.28125 C 0.25 -3.726562 1.25 -4.820312 3.25 -5.5625 C 2.851562 -5.738281 2.597656 -5.96875 2.484375 -6.25 C 2.367188 -6.53125 2.3125 -6.972656 2.3125 -7.578125 C 2.3125 -8.191406 2.597656 -8.84375 3.171875 -9.53125 C 3.742188 -10.21875 4.441406 -10.785156 5.265625 -11.234375 C 7.109375 -12.222656 8.753906 -12.71875 10.203125 -12.71875 C 10.546875 -12.71875 10.894531 -12.632812 11.25 -12.46875 C 11.613281 -12.300781 11.796875 -12.066406 11.796875 -11.765625 Z M 11.796875 -11.765625 "/></g></g></g><g fill="#c990fc" fill-opacity="1"><g transform="translate(156.970756, 291.328603)"><g/></g></g><g fill="#c990fc" fill-opacity="1"><g transform="translate(163.653533, 291.328603)"><g><path d="M 20.71875 -23.578125 C 20.914062 -23.578125 21.070312 -23.507812 21.1875 -23.375 C 21.3125 -23.25 21.375 -23.117188 21.375 -22.984375 C 21.375 -22.859375 21.269531 -22.617188 21.0625 -22.265625 C 20.851562 -21.921875 20.378906 -21.15625 19.640625 -19.96875 C 18.910156 -18.789062 18.34375 -17.867188 17.9375 -17.203125 C 15.5625 -13.335938 13.695312 -10.066406 12.34375 -7.390625 C 10.988281 -4.710938 10.3125 -3.097656 10.3125 -2.546875 L 10.3125 -2.421875 C 10.3125 -1.992188 10.46875 -1.78125 10.78125 -1.78125 C 11.101562 -1.78125 11.484375 -1.925781 11.921875 -2.21875 C 12.367188 -2.507812 12.757812 -2.820312 13.09375 -3.15625 C 13.425781 -3.488281 13.765625 -3.835938 14.109375 -4.203125 C 14.453125 -4.566406 14.660156 -4.78125 14.734375 -4.84375 C 14.804688 -4.90625 14.898438 -4.9375 15.015625 -4.9375 C 15.191406 -4.9375 15.304688 -4.820312 15.359375 -4.59375 C 15.410156 -4.375 15.4375 -4.0625 15.4375 -3.65625 C 15.4375 -3.25 15.40625 -2.984375 15.34375 -2.859375 C 15.039062 -2.273438 14.375 -1.5625 13.34375 -0.71875 C 12.3125 0.125 11.332031 0.546875 10.40625 0.546875 C 8.832031 0.546875 8.046875 -0.117188 8.046875 -1.453125 C 8.046875 -2.273438 8.363281 -3.359375 9 -4.703125 C 8.144531 -3.597656 7.28125 -2.660156 6.40625 -1.890625 C 4.769531 -0.460938 3.347656 0.25 2.140625 0.25 C 1.460938 0.25 0.960938 0.015625 0.640625 -0.453125 C 0.328125 -0.921875 0.171875 -1.597656 0.171875 -2.484375 C 0.171875 -3.378906 0.515625 -4.441406 1.203125 -5.671875 C 1.898438 -6.910156 2.765625 -8.023438 3.796875 -9.015625 C 4.828125 -10.003906 5.972656 -10.832031 7.234375 -11.5 C 8.492188 -12.164062 9.648438 -12.5 10.703125 -12.5 C 11.046875 -12.5 11.441406 -12.296875 11.890625 -11.890625 C 12.191406 -12.367188 12.75 -13.332031 13.5625 -14.78125 C 16.132812 -19.113281 17.835938 -21.753906 18.671875 -22.703125 C 19.109375 -23.285156 19.789062 -23.578125 20.71875 -23.578125 Z M 10.921875 -10.40625 C 9.410156 -10.070312 8.003906 -9.367188 6.703125 -8.296875 C 5.410156 -7.234375 4.4375 -6.113281 3.78125 -4.9375 C 3.132812 -3.769531 2.8125 -3.015625 2.8125 -2.671875 C 2.8125 -2.328125 2.882812 -2.15625 3.03125 -2.15625 C 3.664062 -2.15625 5.222656 -3.5625 7.703125 -6.375 C 8.941406 -7.75 10.015625 -9.09375 10.921875 -10.40625 Z M 10.921875 -10.40625 "/></g></g></g><g fill="#c990fc" fill-opacity="1"><g transform="translate(176.909018, 291.328603)"><g><path d="M 12.96875 -11.953125 C 13.769531 -11.953125 14.171875 -11.675781 14.171875 -11.125 C 14.171875 -10.832031 14.101562 -10.617188 13.96875 -10.484375 C 13.832031 -10.347656 13.539062 -9.894531 13.09375 -9.125 C 12.644531 -8.351562 12.148438 -7.367188 11.609375 -6.171875 C 11.066406 -4.972656 10.71875 -3.945312 10.5625 -3.09375 C 10.53125 -2.988281 10.515625 -2.84375 10.515625 -2.65625 C 10.515625 -2.082031 10.671875 -1.796875 10.984375 -1.796875 C 11.304688 -1.796875 11.679688 -1.941406 12.109375 -2.234375 C 12.535156 -2.535156 12.914062 -2.851562 13.25 -3.1875 C 13.59375 -3.53125 13.921875 -3.878906 14.234375 -4.234375 C 14.554688 -4.597656 14.75 -4.804688 14.8125 -4.859375 C 14.875 -4.910156 14.96875 -4.9375 15.09375 -4.9375 C 15.289062 -4.9375 15.410156 -4.785156 15.453125 -4.484375 C 15.492188 -4.179688 15.515625 -3.863281 15.515625 -3.53125 C 15.515625 -3.207031 15.484375 -2.984375 15.421875 -2.859375 C 15.117188 -2.265625 14.453125 -1.546875 13.421875 -0.703125 C 12.390625 0.128906 11.453125 0.546875 10.609375 0.546875 C 9.765625 0.546875 9.140625 0.289062 8.734375 -0.21875 C 8.335938 -0.726562 8.140625 -1.296875 8.140625 -1.921875 C 8.140625 -2.546875 8.242188 -3.09375 8.453125 -3.5625 C 7.585938 -2.4375 6.59375 -1.476562 5.46875 -0.6875 C 4.34375 0.09375 3.421875 0.484375 2.703125 0.484375 C 1.992188 0.484375 1.410156 0.269531 0.953125 -0.15625 C 0.378906 -0.6875 0.09375 -1.425781 0.09375 -2.375 C 0.09375 -3.332031 0.304688 -4.289062 0.734375 -5.25 C 1.160156 -6.207031 1.71875 -7.082031 2.40625 -7.875 C 3.09375 -8.664062 3.851562 -9.382812 4.6875 -10.03125 C 6.425781 -11.394531 8.03125 -12.078125 9.5 -12.078125 C 10.0625 -12.078125 10.519531 -11.984375 10.875 -11.796875 C 11.238281 -11.609375 11.46875 -11.367188 11.5625 -11.078125 C 11.8125 -11.460938 12.019531 -11.703125 12.1875 -11.796875 C 12.363281 -11.898438 12.625 -11.953125 12.96875 -11.953125 Z M 10.875 -10.203125 C 9.082031 -10.203125 7.226562 -9.207031 5.3125 -7.21875 C 4.632812 -6.5 4.007812 -5.640625 3.4375 -4.640625 C 2.863281 -3.648438 2.578125 -2.972656 2.578125 -2.609375 C 2.578125 -2.242188 2.679688 -2.0625 2.890625 -2.0625 C 3.179688 -2.0625 4 -2.640625 5.34375 -3.796875 C 6.6875 -4.953125 7.578125 -5.804688 8.015625 -6.359375 C 8.503906 -6.960938 9.457031 -8.242188 10.875 -10.203125 Z M 10.875 -10.203125 "/></g></g></g><g fill="#c990fc" fill-opacity="1"><g transform="translate(190.022985, 291.328603)"><g/></g></g><g fill="#c990fc" fill-opacity="1"><g transform="translate(196.705762, 291.328603)"><g><path d="M 0.96875 0.09375 L 0.203125 0.0625 L -0.078125 0.0625 C -0.179688 0.03125 -0.289062 -0.03125 -0.40625 -0.125 C -0.53125 -0.21875 -0.625 -0.285156 -0.6875 -0.328125 C -0.75 -0.367188 -0.78125 -0.441406 -0.78125 -0.546875 C -0.78125 -0.660156 -0.738281 -0.851562 -0.65625 -1.125 C 1.382812 -5.625 3.359375 -9.222656 5.265625 -11.921875 C 5.472656 -12.210938 5.8125 -12.429688 6.28125 -12.578125 C 6.75 -12.734375 7.203125 -12.8125 7.640625 -12.8125 C 7.898438 -12.8125 8.03125 -12.609375 8.03125 -12.203125 C 8.03125 -12.085938 7.988281 -11.929688 7.90625 -11.734375 C 7.820312 -11.546875 7.613281 -11.226562 7.28125 -10.78125 C 6.945312 -10.34375 6.546875 -9.835938 6.078125 -9.265625 C 5.617188 -8.703125 5.359375 -8.378906 5.296875 -8.296875 C 6.734375 -9.785156 8.03125 -10.894531 9.1875 -11.625 C 10.34375 -12.351562 11.179688 -12.71875 11.703125 -12.71875 C 12.222656 -12.71875 12.617188 -12.566406 12.890625 -12.265625 C 13.171875 -11.972656 13.3125 -11.65625 13.3125 -11.3125 C 13.3125 -10.96875 13.285156 -10.679688 13.234375 -10.453125 C 13.191406 -10.234375 13.109375 -10 12.984375 -9.75 C 12.859375 -9.507812 12.75 -9.300781 12.65625 -9.125 C 12.570312 -8.957031 12.425781 -8.734375 12.21875 -8.453125 C 12.007812 -8.171875 11.863281 -7.976562 11.78125 -7.875 C 11.707031 -7.769531 11.546875 -7.570312 11.296875 -7.28125 C 11.046875 -6.988281 10.910156 -6.828125 10.890625 -6.796875 C 11.191406 -7.085938 11.601562 -7.519531 12.125 -8.09375 C 12.644531 -8.675781 13.085938 -9.160156 13.453125 -9.546875 C 13.816406 -9.929688 14.269531 -10.367188 14.8125 -10.859375 C 15.351562 -11.347656 15.863281 -11.742188 16.34375 -12.046875 C 17.46875 -12.753906 18.613281 -13.109375 19.78125 -13.109375 C 20.175781 -13.109375 20.507812 -12.984375 20.78125 -12.734375 C 21.0625 -12.484375 21.203125 -12.179688 21.203125 -11.828125 C 21.203125 -11.484375 20.773438 -10.644531 19.921875 -9.3125 C 19.078125 -7.988281 18.234375 -6.65625 17.390625 -5.3125 C 16.546875 -3.976562 16.125 -3.140625 16.125 -2.796875 C 16.125 -2.316406 16.210938 -2.03125 16.390625 -1.9375 C 16.566406 -1.851562 16.78125 -1.820312 17.03125 -1.84375 C 17.28125 -1.863281 17.632812 -2.023438 18.09375 -2.328125 C 18.550781 -2.628906 18.957031 -2.941406 19.3125 -3.265625 C 19.882812 -3.796875 20.414062 -4.304688 20.90625 -4.796875 C 21.019531 -4.890625 21.140625 -4.9375 21.265625 -4.9375 C 21.460938 -4.9375 21.582031 -4.785156 21.625 -4.484375 C 21.664062 -4.179688 21.6875 -3.863281 21.6875 -3.53125 C 21.6875 -3.207031 21.65625 -2.984375 21.59375 -2.859375 C 21.289062 -2.273438 20.617188 -1.554688 19.578125 -0.703125 C 18.535156 0.140625 17.539062 0.5625 16.59375 0.5625 C 16.476562 0.5625 16.394531 0.554688 16.34375 0.546875 C 15.257812 0.441406 14.507812 0.148438 14.09375 -0.328125 C 13.675781 -0.816406 13.46875 -1.394531 13.46875 -2.0625 C 13.46875 -2.738281 13.695312 -3.550781 14.15625 -4.5 C 14.613281 -5.457031 15.113281 -6.320312 15.65625 -7.09375 C 16.207031 -7.875 16.707031 -8.578125 17.15625 -9.203125 C 17.613281 -9.828125 17.84375 -10.164062 17.84375 -10.21875 C 17.84375 -10.269531 17.800781 -10.296875 17.71875 -10.296875 C 17.394531 -10.296875 16.671875 -9.773438 15.546875 -8.734375 C 13.628906 -6.929688 11.972656 -5.195312 10.578125 -3.53125 C 10.210938 -3.09375 9.34375 -1.976562 7.96875 -0.1875 C 7.8125 0.0195312 7.5625 0.125 7.21875 0.125 C 6.882812 0.125 6.53125 0.0625 6.15625 -0.0625 C 5.789062 -0.195312 5.609375 -0.367188 5.609375 -0.578125 C 5.609375 -0.679688 6.441406 -2.148438 8.109375 -4.984375 C 9.773438 -7.828125 10.609375 -9.375 10.609375 -9.625 C 10.609375 -9.882812 10.453125 -10.015625 10.140625 -10.015625 C 9.835938 -10.015625 9.203125 -9.550781 8.234375 -8.625 C 5.585938 -6.09375 3.535156 -3.570312 2.078125 -1.0625 C 1.984375 -0.914062 1.796875 -0.6875 1.515625 -0.375 C 1.242188 -0.0625 1.0625 0.09375 0.96875 0.09375 Z M 0.96875 0.09375 "/></g></g></g><g fill="#c990fc" fill-opacity="1"><g transform="translate(216.298092, 291.328603)"><g><path d="M 12.96875 -11.953125 C 13.769531 -11.953125 14.171875 -11.675781 14.171875 -11.125 C 14.171875 -10.832031 14.101562 -10.617188 13.96875 -10.484375 C 13.832031 -10.347656 13.539062 -9.894531 13.09375 -9.125 C 12.644531 -8.351562 12.148438 -7.367188 11.609375 -6.171875 C 11.066406 -4.972656 10.71875 -3.945312 10.5625 -3.09375 C 10.53125 -2.988281 10.515625 -2.84375 10.515625 -2.65625 C 10.515625 -2.082031 10.671875 -1.796875 10.984375 -1.796875 C 11.304688 -1.796875 11.679688 -1.941406 12.109375 -2.234375 C 12.535156 -2.535156 12.914062 -2.851562 13.25 -3.1875 C 13.59375 -3.53125 13.921875 -3.878906 14.234375 -4.234375 C 14.554688 -4.597656 14.75 -4.804688 14.8125 -4.859375 C 14.875 -4.910156 14.96875 -4.9375 15.09375 -4.9375 C 15.289062 -4.9375 15.410156 -4.785156 15.453125 -4.484375 C 15.492188 -4.179688 15.515625 -3.863281 15.515625 -3.53125 C 15.515625 -3.207031 15.484375 -2.984375 15.421875 -2.859375 C 15.117188 -2.265625 14.453125 -1.546875 13.421875 -0.703125 C 12.390625 0.128906 11.453125 0.546875 10.609375 0.546875 C 9.765625 0.546875 9.140625 0.289062 8.734375 -0.21875 C 8.335938 -0.726562 8.140625 -1.296875 8.140625 -1.921875 C 8.140625 -2.546875 8.242188 -3.09375 8.453125 -3.5625 C 7.585938 -2.4375 6.59375 -1.476562 5.46875 -0.6875 C 4.34375 0.09375 3.421875 0.484375 2.703125 0.484375 C 1.992188 0.484375 1.410156 0.269531 0.953125 -0.15625 C 0.378906 -0.6875 0.09375 -1.425781 0.09375 -2.375 C 0.09375 -3.332031 0.304688 -4.289062 0.734375 -5.25 C 1.160156 -6.207031 1.71875 -7.082031 2.40625 -7.875 C 3.09375 -8.664062 3.851562 -9.382812 4.6875 -10.03125 C 6.425781 -11.394531 8.03125 -12.078125 9.5 -12.078125 C 10.0625 -12.078125 10.519531 -11.984375 10.875 -11.796875 C 11.238281 -11.609375 11.46875 -11.367188 11.5625 -11.078125 C 11.8125 -11.460938 12.019531 -11.703125 12.1875 -11.796875 C 12.363281 -11.898438 12.625 -11.953125 12.96875 -11.953125 Z M 10.875 -10.203125 C 9.082031 -10.203125 7.226562 -9.207031 5.3125 -7.21875 C 4.632812 -6.5 4.007812 -5.640625 3.4375 -4.640625 C 2.863281 -3.648438 2.578125 -2.972656 2.578125 -2.609375 C 2.578125 -2.242188 2.679688 -2.0625 2.890625 -2.0625 C 3.179688 -2.0625 4 -2.640625 5.34375 -3.796875 C 6.6875 -4.953125 7.578125 -5.804688 8.015625 -6.359375 C 8.503906 -6.960938 9.457031 -8.242188 10.875 -10.203125 Z M 10.875 -10.203125 "/></g></g></g><g fill="#c990fc" fill-opacity="1"><g transform="translate(229.412059, 291.328603)"><g><path d="M 6.109375 -8.5625 C 8.585938 -11.375 10.695312 -12.78125 12.4375 -12.78125 C 12.863281 -12.78125 13.21875 -12.648438 13.5 -12.390625 C 13.78125 -12.140625 13.921875 -11.804688 13.921875 -11.390625 C 13.921875 -10.984375 13.628906 -10.300781 13.046875 -9.34375 C 12.460938 -8.382812 11.925781 -7.578125 11.4375 -6.921875 C 11.164062 -6.585938 10.863281 -6.421875 10.53125 -6.421875 C 10.207031 -6.421875 9.953125 -6.539062 9.765625 -6.78125 C 9.585938 -7.019531 9.5 -7.300781 9.5 -7.625 C 9.5 -8.351562 9.882812 -9.171875 10.65625 -10.078125 L 10.625 -10.109375 C 10.28125 -10.078125 9.421875 -9.394531 8.046875 -8.0625 C 6.679688 -6.726562 5.519531 -5.535156 4.5625 -4.484375 C 3.601562 -3.429688 2.566406 -2.148438 1.453125 -0.640625 C 1.117188 -0.191406 0.835938 0.03125 0.609375 0.03125 C 0.390625 0.03125 0.0976562 -0.0351562 -0.265625 -0.171875 C -0.640625 -0.316406 -0.863281 -0.421875 -0.9375 -0.484375 C -1.019531 -0.546875 -1.0625 -0.648438 -1.0625 -0.796875 C -1.0625 -0.941406 -1.019531 -1.113281 -0.9375 -1.3125 C -0.851562 -1.507812 -0.695312 -1.785156 -0.46875 -2.140625 C -0.25 -2.492188 0.0820312 -3.066406 0.53125 -3.859375 C 0.988281 -4.660156 1.703125 -5.867188 2.671875 -7.484375 C 3.640625 -9.097656 4.21875 -10.070312 4.40625 -10.40625 C 4.800781 -11.101562 5.125 -11.609375 5.375 -11.921875 C 5.84375 -12.515625 6.640625 -12.8125 7.765625 -12.8125 C 8.015625 -12.8125 8.140625 -12.65625 8.140625 -12.34375 C 8.140625 -11.851562 7.6875 -10.925781 6.78125 -9.5625 Z M 6.109375 -8.5625 "/></g></g></g><g fill="#c990fc" fill-opacity="1"><g transform="translate(240.654849, 291.328603)"><g><path d="M 11.203125 -3.484375 C 11.742188 -3.835938 12.09375 -4.078125 12.25 -4.203125 C 12.40625 -4.335938 12.585938 -4.492188 12.796875 -4.671875 C 13.003906 -4.847656 13.175781 -4.9375 13.3125 -4.9375 C 13.53125 -4.9375 13.640625 -4.695312 13.640625 -4.21875 C 13.640625 -3.738281 13.40625 -3.222656 12.9375 -2.671875 C 12.46875 -2.128906 11.882812 -1.664062 11.1875 -1.28125 C 10.5 -0.894531 9.765625 -0.5625 8.984375 -0.28125 C 7.421875 0.289062 6.085938 0.578125 4.984375 0.578125 C 3.890625 0.578125 2.898438 0.21875 2.015625 -0.5 C 1.140625 -1.21875 0.703125 -2.15625 0.703125 -3.3125 C 0.703125 -4.46875 0.988281 -5.625 1.5625 -6.78125 C 2.144531 -7.9375 2.890625 -8.953125 3.796875 -9.828125 C 4.703125 -10.710938 5.753906 -11.425781 6.953125 -11.96875 C 8.160156 -12.507812 9.347656 -12.78125 10.515625 -12.78125 C 11.085938 -12.78125 11.597656 -12.617188 12.046875 -12.296875 C 12.492188 -11.972656 12.71875 -11.523438 12.71875 -10.953125 C 12.71875 -10.390625 12.4375 -9.710938 11.875 -8.921875 C 11.3125 -8.128906 10.742188 -7.734375 10.171875 -7.734375 C 9.503906 -7.734375 9.171875 -8.054688 9.171875 -8.703125 C 9.171875 -8.867188 9.328125 -9.164062 9.640625 -9.59375 C 9.953125 -10.019531 10.109375 -10.304688 10.109375 -10.453125 C 10.109375 -10.609375 10.050781 -10.6875 9.9375 -10.6875 C 9.363281 -10.6875 8.742188 -10.488281 8.078125 -10.09375 C 7.421875 -9.695312 6.820312 -9.273438 6.28125 -8.828125 C 5.738281 -8.390625 5.226562 -7.898438 4.75 -7.359375 C 3.695312 -6.171875 3.171875 -4.9375 3.171875 -3.65625 C 3.171875 -3.144531 3.335938 -2.703125 3.671875 -2.328125 C 4.003906 -1.960938 4.5625 -1.78125 5.34375 -1.78125 C 6.125 -1.78125 6.90625 -1.867188 7.6875 -2.046875 C 8.476562 -2.234375 9.125 -2.429688 9.625 -2.640625 C 10.132812 -2.859375 10.660156 -3.140625 11.203125 -3.484375 Z M 11.203125 -3.484375 "/></g></g></g><g fill="#c990fc" fill-opacity="1"><g transform="translate(252.400812, 291.328603)"><g><path d="M 12.96875 -11.953125 C 13.769531 -11.953125 14.171875 -11.675781 14.171875 -11.125 C 14.171875 -10.832031 14.101562 -10.617188 13.96875 -10.484375 C 13.832031 -10.347656 13.539062 -9.894531 13.09375 -9.125 C 12.644531 -8.351562 12.148438 -7.367188 11.609375 -6.171875 C 11.066406 -4.972656 10.71875 -3.945312 10.5625 -3.09375 C 10.53125 -2.988281 10.515625 -2.84375 10.515625 -2.65625 C 10.515625 -2.082031 10.671875 -1.796875 10.984375 -1.796875 C 11.304688 -1.796875 11.679688 -1.941406 12.109375 -2.234375 C 12.535156 -2.535156 12.914062 -2.851562 13.25 -3.1875 C 13.59375 -3.53125 13.921875 -3.878906 14.234375 -4.234375 C 14.554688 -4.597656 14.75 -4.804688 14.8125 -4.859375 C 14.875 -4.910156 14.96875 -4.9375 15.09375 -4.9375 C 15.289062 -4.9375 15.410156 -4.785156 15.453125 -4.484375 C 15.492188 -4.179688 15.515625 -3.863281 15.515625 -3.53125 C 15.515625 -3.207031 15.484375 -2.984375 15.421875 -2.859375 C 15.117188 -2.265625 14.453125 -1.546875 13.421875 -0.703125 C 12.390625 0.128906 11.453125 0.546875 10.609375 0.546875 C 9.765625 0.546875 9.140625 0.289062 8.734375 -0.21875 C 8.335938 -0.726562 8.140625 -1.296875 8.140625 -1.921875 C 8.140625 -2.546875 8.242188 -3.09375 8.453125 -3.5625 C 7.585938 -2.4375 6.59375 -1.476562 5.46875 -0.6875 C 4.34375 0.09375 3.421875 0.484375 2.703125 0.484375 C 1.992188 0.484375 1.410156 0.269531 0.953125 -0.15625 C 0.378906 -0.6875 0.09375 -1.425781 0.09375 -2.375 C 0.09375 -3.332031 0.304688 -4.289062 0.734375 -5.25 C 1.160156 -6.207031 1.71875 -7.082031 2.40625 -7.875 C 3.09375 -8.664062 3.851562 -9.382812 4.6875 -10.03125 C 6.425781 -11.394531 8.03125 -12.078125 9.5 -12.078125 C 10.0625 -12.078125 10.519531 -11.984375 10.875 -11.796875 C 11.238281 -11.609375 11.46875 -11.367188 11.5625 -11.078125 C 11.8125 -11.460938 12.019531 -11.703125 12.1875 -11.796875 C 12.363281 -11.898438 12.625 -11.953125 12.96875 -11.953125 Z M 10.875 -10.203125 C 9.082031 -10.203125 7.226562 -9.207031 5.3125 -7.21875 C 4.632812 -6.5 4.007812 -5.640625 3.4375 -4.640625 C 2.863281 -3.648438 2.578125 -2.972656 2.578125 -2.609375 C 2.578125 -2.242188 2.679688 -2.0625 2.890625 -2.0625 C 3.179688 -2.0625 4 -2.640625 5.34375 -3.796875 C 6.6875 -4.953125 7.578125 -5.804688 8.015625 -6.359375 C 8.503906 -6.960938 9.457031 -8.242188 10.875 -10.203125 Z M 10.875 -10.203125 "/></g></g></g><g fill="#c990fc" fill-opacity="1"><g transform="translate(265.511783, 291.328603)"><g/></g></g></svg>