<svg xmlns="http://www.w3.org/2000/svg" xmlns:xlink="http://www.w3.org/1999/xlink" width="500" zoomAndPan="magnify" viewBox="0 0 375 374.999991" height="500" preserveAspectRatio="xMidYMid meet" version="1.0"><defs><g/><clipPath id="ecf2a0031a"><path d="M 105.839844 93.917969 L 269.339844 93.917969 L 269.339844 219.917969 L 105.839844 219.917969 Z M 105.839844 93.917969 " clip-rule="nonzero"/></clipPath><clipPath id="f04aa2f25f"><path d="M 120.566406 132.144531 L 254.382812 132.144531 L 254.382812 198.144531 L 120.566406 198.144531 Z M 120.566406 132.144531 " clip-rule="nonzero"/></clipPath></defs><g clip-path="url(#ecf2a0031a)"><path fill="#304063" d="M 160.367188 98.636719 C 168.722656 95.789062 178.28125 93.917969 187.632812 93.917969 C 196.988281 93.917969 205.988281 95.519531 214.28125 98.371094 C 214.457031 98.460938 214.632812 98.460938 214.808594 98.546875 C 245.957031 109.941406 268.898438 140.03125 269.339844 173.523438 L 269.339844 204.914062 C 269.339844 213.199219 262.617188 219.917969 254.324219 219.917969 L 120.855469 219.917969 C 112.5625 219.917969 105.839844 213.199219 105.839844 204.914062 L 105.839844 173.558594 C 106.28125 139.851562 128.867188 109.765625 160.367188 98.636719 " fill-opacity="1" fill-rule="nonzero"/></g><g clip-path="url(#f04aa2f25f)"><path fill="#ffffff" d="M 155.960938 150.414062 L 155.832031 167.972656 C 150.546875 168.828125 145.445312 169.667969 140.980469 170.414062 L 139.519531 156.328125 C 143.988281 154.691406 149.765625 152.617188 155.960938 150.414062 Z M 173.496094 144.191406 L 173.347656 165.226562 C 168.246094 166.007812 162.832031 166.863281 157.527344 167.699219 L 156.015625 150.398438 C 161.757812 148.359375 167.828125 146.210938 173.496094 144.191406 Z M 143.585938 177.636719 L 177.597656 174.070312 C 177.597656 174.070312 177.484375 176.34375 174.5 177.070312 C 171.492188 177.800781 143.457031 178.328125 143.457031 178.328125 Z M 146.082031 182.148438 L 175.375 179.65625 C 175.375 179.65625 174.773438 181.820312 172.203125 182.457031 C 169.613281 183.09375 145.972656 182.839844 145.972656 182.839844 Z M 129.351562 175.578125 C 129.351562 175.578125 189.460938 166.609375 191.355469 167.007812 C 193.234375 167.445312 193.417969 169.8125 193.417969 169.8125 L 129.480469 176.070312 Z M 215.652344 178.691406 C 215.652344 178.691406 221.011719 179.308594 223.378906 180.21875 C 224.492188 180.636719 225.128906 181.476562 225.511719 182.238281 C 223.964844 181.929688 218.898438 180.894531 219.042969 181.292969 C 219.1875 181.730469 223 183.496094 224.800781 183.949219 C 222.378906 184.003906 217.09375 184.09375 216.398438 183.695312 C 215.488281 183.167969 215.652344 178.691406 215.652344 178.691406 Z M 213.882812 195.484375 C 213.082031 194.777344 212.410156 193.8125 211.863281 192.628906 C 205.738281 192.554688 200.234375 192.410156 196.75 192.320312 C 196.1875 193.558594 195.496094 194.59375 194.691406 195.375 C 201.4375 195.394531 207.886719 195.429688 213.882812 195.484375 Z M 165.257812 195.449219 C 170.34375 195.414062 175.71875 195.375 181.277344 195.375 C 180.605469 194.757812 179.964844 193.976562 179.4375 193.046875 L 179.417969 193.011719 L 166.878906 193.101562 C 166.441406 194.085938 165.894531 194.902344 165.257812 195.449219 Z M 143.730469 195.703125 C 147.796875 195.632812 152.296875 195.578125 157.144531 195.523438 C 156.492188 194.976562 155.90625 194.175781 155.46875 193.191406 L 145.753906 193.265625 C 145.207031 194.339844 144.515625 195.195312 143.730469 195.703125 Z M 193.269531 189.042969 C 193.945312 189.042969 194.910156 189.0625 196.078125 189.082031 L 197.753906 189.082031 L 197.753906 189.117188 C 208.78125 189.410156 232.914062 190.191406 242.097656 188.570312 C 243.574219 188.316406 244.707031 187.769531 245.269531 187.117188 C 245.5625 186.734375 245.582031 185.1875 245.433594 183.222656 C 243.613281 183.441406 241.933594 183.585938 241.933594 183.585938 C 243.429688 182.949219 244.832031 182.222656 244.925781 181.964844 C 244.996094 181.746094 243.613281 181.929688 242.0625 182.203125 C 242.574219 180.039062 244.558594 179.308594 246.492188 178.65625 C 247.203125 182.949219 247.96875 188.589844 247.203125 189.535156 C 246.710938 190.152344 245.144531 191.15625 242.808594 191.539062 C 239.382812 192.101562 234.316406 192.410156 228.722656 192.554688 C 228.136719 193.828125 227.371094 194.882812 226.496094 195.632812 C 243.359375 195.886719 254.382812 196.304688 254.382812 196.761719 C 254.382812 197.523438 224.308594 198.160156 187.476562 198.160156 C 150.621094 198.160156 120.566406 197.523438 120.566406 196.761719 C 120.566406 196.433594 126.363281 196.121094 135.984375 195.867188 C 135.054688 195.375 134.234375 194.429688 133.632812 193.191406 L 131.976562 193.121094 L 126.507812 191.628906 L 126.324219 190.71875 L 131.5 190.644531 L 131.5 186.914062 C 131.5 186.804688 131.5 186.734375 131.5 186.640625 C 131.5 182.203125 133.433594 178.582031 137.335938 178.601562 C 141.253906 178.601562 143.164062 182.203125 143.164062 186.640625 C 143.164062 186.734375 143.164062 186.84375 143.164062 186.933594 L 143.164062 190.5 L 166.203125 190.210938 L 177.066406 190.082031 L 177.066406 187.753906 L 144.714844 187.734375 L 144.714844 186.550781 C 154.25 186.132812 166.625 185.605469 177.066406 185.222656 L 177.066406 184.878906 C 177.066406 169.902344 191.628906 170.101562 191.628906 185.1875 C 191.628906 186.550781 191.484375 187.863281 191.210938 189.082031 L 193.269531 189.082031 Z M 189.808594 188.789062 C 188.898438 191.5 187.3125 193.285156 185.507812 193.285156 C 183.59375 193.285156 181.917969 191.230469 181.058594 188.1875 C 182.191406 190.152344 183.8125 191.390625 185.617188 191.390625 C 187.238281 191.390625 188.695312 190.410156 189.808594 188.789062 Z M 185.542969 178.945312 C 187.203125 178.945312 188.53125 180.910156 188.585938 183.347656 C 188.003906 182.039062 186.855469 181.148438 185.542969 181.148438 C 184.230469 181.148438 183.082031 182.039062 182.5 183.347656 C 182.554688 180.910156 183.882812 178.945312 185.542969 178.945312 Z M 185.359375 187.351562 C 186.015625 187.351562 186.527344 186.371094 186.527344 185.167969 C 186.527344 183.96875 186.015625 182.984375 185.359375 182.984375 C 184.722656 182.984375 184.195312 183.96875 184.195312 185.167969 C 184.195312 186.371094 184.722656 187.351562 185.359375 187.351562 Z M 137.445312 183.277344 C 138.574219 183.277344 139.503906 184.675781 139.539062 186.460938 C 139.140625 185.496094 138.335938 184.839844 137.445312 184.839844 C 136.53125 184.839844 135.746094 185.496094 135.347656 186.460938 C 135.382812 184.675781 136.296875 183.277344 137.445312 183.277344 Z M 137.117188 179.65625 C 139.339844 179.65625 141.179688 182.476562 141.507812 186.167969 C 140.742188 183.511719 139.066406 181.695312 137.117188 181.695312 C 135.144531 181.695312 133.433594 183.585938 132.6875 186.277344 C 132.976562 182.546875 134.835938 179.65625 137.117188 179.65625 Z M 137.316406 189.351562 C 137.773438 189.351562 138.117188 188.644531 138.117188 187.769531 C 138.117188 186.898438 137.773438 186.1875 137.316406 186.1875 C 136.878906 186.1875 136.515625 186.898438 136.515625 187.769531 C 136.515625 188.644531 136.878906 189.351562 137.316406 189.351562 Z M 140.359375 190.410156 C 139.742188 192.375 138.664062 193.664062 137.425781 193.664062 C 136.09375 193.664062 134.945312 192.175781 134.34375 189.972656 C 135.128906 191.390625 136.242188 192.285156 137.5 192.285156 C 138.589844 192.285156 139.613281 191.574219 140.359375 190.410156 Z M 185.050781 174.90625 C 187.65625 174.90625 189.808594 178.019531 190.171875 182.074219 C 189.28125 179.164062 187.328125 177.144531 185.070312 177.144531 C 182.753906 177.144531 180.785156 179.238281 179.929688 182.203125 C 180.257812 178.089844 182.425781 174.90625 185.050781 174.90625 Z M 125.269531 170.519531 L 125.105469 161.023438 C 125.121094 158.457031 126.925781 156.472656 129.660156 155.402344 C 142.035156 150.507812 188.347656 134.039062 201.398438 132.148438 C 205.644531 141.136719 209.710938 154.328125 213.539062 172.066406 C 212.71875 160.332031 210.546875 149.140625 207.398438 138.386719 C 208.945312 138.550781 210.878906 138.808594 212.445312 139.078125 C 214.121094 141.734375 216.582031 149.816406 217 151.925781 C 217.09375 152.4375 221.632812 152.835938 221.285156 150.886719 C 221.246094 150.597656 221.136719 150.125 220.992188 149.503906 L 221.011719 149.503906 C 221.011719 149.503906 220.957031 149.269531 220.847656 148.851562 C 220.5 147.46875 219.992188 145.648438 219.371094 143.957031 C 219.226562 143.609375 219.097656 143.265625 218.953125 142.9375 C 218.441406 141.589844 217.859375 140.28125 217.238281 139.316406 C 217.09375 139.0625 217 138.914062 217 138.914062 L 216.945312 138.898438 C 216.546875 138.371094 216.144531 137.988281 215.742188 137.804688 C 214.085938 137.078125 209.402344 136.476562 206.738281 136.203125 C 206.359375 134.914062 205.957031 133.640625 205.535156 132.367188 C 213.8125 132.964844 221.101562 134.347656 229.722656 136.367188 C 231.035156 137.207031 232.292969 138.371094 233.476562 139.769531 C 235.484375 140.078125 241.660156 141.097656 243.121094 142.082031 C 243.359375 142.246094 243.613281 142.519531 243.867188 142.863281 L 243.921875 142.882812 C 243.921875 142.882812 245.363281 144.847656 246.472656 147.050781 C 247.621094 149.378906 248.441406 151.960938 248.660156 152.78125 C 249.078125 154.382812 244.523438 154.054688 244.414062 153.636719 C 243.902344 151.871094 241.113281 145.121094 239.328125 142.972656 C 238.050781 142.683594 236.558594 142.410156 235.28125 142.191406 C 238.164062 146.464844 240.605469 152.289062 242.5 158.820312 C 238.453125 159.605469 234.261719 160.257812 229.851562 161.148438 C 232.984375 161.042969 237.851562 160.730469 242.863281 160.167969 C 243.121094 161.097656 243.375 162.023438 243.59375 162.96875 C 238.417969 164.316406 232.984375 165.300781 227.226562 166.300781 C 231.164062 166.261719 237.816406 166.007812 244.140625 165.28125 C 244.269531 165.863281 244.378906 166.445312 244.503906 167.007812 C 238.015625 168.847656 231.253906 169.902344 223.890625 170.957031 C 228.722656 171.066406 237.671875 170.902344 245.070312 169.9375 C 245.144531 170.414062 245.214844 170.867188 245.289062 171.339844 C 237.742188 173.597656 229.90625 174.414062 221.230469 175.507812 C 226.808594 175.742188 237.945312 175.835938 245.800781 174.597656 C 245.871094 175.214844 245.964844 175.851562 246.035156 176.488281 C 238.253906 178.109375 227.117188 178.617188 215.304688 176.761719 C 214.722656 176.671875 214.175781 176.527344 213.667969 176.34375 L 213.976562 186.625 L 211.480469 175.160156 C 206.300781 171.320312 204.972656 162.277344 198.902344 162.277344 L 199.886719 185.367188 L 210.203125 187.351562 L 197.792969 187.171875 L 196.914062 159.839844 L 196.933594 159.839844 L 195.292969 138.1875 L 195.128906 162.332031 C 190.976562 162.679688 183.554688 163.699219 175.0625 164.972656 L 173.496094 144.191406 C 186.472656 139.605469 197.351562 135.804688 197.351562 135.804688 L 132.503906 156.53125 C 127.65625 157.492188 127.65625 161.625 127.417969 165.554688 C 127.417969 165.554688 128.402344 161.148438 130.792969 159.660156 C 131.0625 159.457031 134.382812 158.203125 139.394531 156.363281 L 139.285156 170.683594 C 133.742188 171.613281 129.351562 172.359375 127.054688 172.742188 L 125.378906 186.753906 L 125.269531 170.519531 " fill-opacity="1" fill-rule="evenodd"/></g><g fill="#304063" fill-opacity="1"><g transform="translate(89.648151, 257.137512)"><g><path d="M 18.859375 -15.03125 C 18.859375 -13.75 18.5625 -12.578125 17.96875 -11.515625 C 17.382812 -10.453125 16.476562 -9.59375 15.25 -8.9375 C 14.03125 -8.289062 12.515625 -7.96875 10.703125 -7.96875 L 7.359375 -7.96875 L 7.359375 0 L 1.953125 0 L 1.953125 -22.171875 L 10.703125 -22.171875 C 12.472656 -22.171875 13.96875 -21.863281 15.1875 -21.25 C 16.414062 -20.644531 17.332031 -19.804688 17.9375 -18.734375 C 18.550781 -17.660156 18.859375 -16.425781 18.859375 -15.03125 Z M 10.296875 -12.265625 C 11.328125 -12.265625 12.09375 -12.503906 12.59375 -12.984375 C 13.101562 -13.472656 13.359375 -14.15625 13.359375 -15.03125 C 13.359375 -15.914062 13.101562 -16.597656 12.59375 -17.078125 C 12.09375 -17.566406 11.328125 -17.8125 10.296875 -17.8125 L 7.359375 -17.8125 L 7.359375 -12.265625 Z M 10.296875 -12.265625 "/></g></g></g><g fill="#304063" fill-opacity="1"><g transform="translate(109.355391, 257.137512)"><g><path d="M 15.765625 -3.921875 L 7.484375 -3.921875 L 6.15625 0 L 0.5 0 L 8.53125 -22.171875 L 14.78125 -22.171875 L 22.8125 0 L 17.09375 0 Z M 14.375 -8.09375 L 11.625 -16.203125 L 8.90625 -8.09375 Z M 14.375 -8.09375 "/></g></g></g><g fill="#304063" fill-opacity="1"><g transform="translate(132.631413, 257.137512)"><g><path d="M 17.90625 -22.171875 L 17.90625 -17.84375 L 12.03125 -17.84375 L 12.03125 0 L 6.640625 0 L 6.640625 -17.84375 L 0.765625 -17.84375 L 0.765625 -22.171875 Z M 17.90625 -22.171875 "/></g></g></g><g fill="#304063" fill-opacity="1"><g transform="translate(151.296439, 257.137512)"><g><path d="M 21.171875 -22.171875 L 21.171875 0 L 15.765625 0 L 15.765625 -9.125 L 7.359375 -9.125 L 7.359375 0 L 1.953125 0 L 1.953125 -22.171875 L 7.359375 -22.171875 L 7.359375 -13.484375 L 15.765625 -13.484375 L 15.765625 -22.171875 Z M 21.171875 -22.171875 "/></g></g></g><g fill="#304063" fill-opacity="1"><g transform="translate(174.382969, 257.137512)"><g><path d="M 16.390625 -22.171875 L 16.390625 -17.84375 L 7.359375 -17.84375 L 7.359375 -13.171875 L 14.125 -13.171875 L 14.125 -8.96875 L 7.359375 -8.96875 L 7.359375 0 L 1.953125 0 L 1.953125 -22.171875 Z M 16.390625 -22.171875 "/></g></g></g><g fill="#304063" fill-opacity="1"><g transform="translate(191.658386, 257.137512)"><g><path d="M 7.359375 -22.171875 L 7.359375 0 L 1.953125 0 L 1.953125 -22.171875 Z M 7.359375 -22.171875 "/></g></g></g><g fill="#304063" fill-opacity="1"><g transform="translate(200.975112, 257.137512)"><g><path d="M 21.796875 0 L 16.390625 0 L 7.359375 -13.6875 L 7.359375 0 L 1.953125 0 L 1.953125 -22.171875 L 7.359375 -22.171875 L 16.390625 -8.4375 L 16.390625 -22.171875 L 21.796875 -22.171875 Z M 21.796875 0 "/></g></g></g><g fill="#304063" fill-opacity="1"><g transform="translate(224.724862, 257.137512)"><g><path d="M 10.265625 -22.171875 C 12.609375 -22.171875 14.648438 -21.707031 16.390625 -20.78125 C 18.140625 -19.863281 19.492188 -18.566406 20.453125 -16.890625 C 21.410156 -15.210938 21.890625 -13.28125 21.890625 -11.09375 C 21.890625 -8.914062 21.410156 -6.984375 20.453125 -5.296875 C 19.492188 -3.617188 18.132812 -2.316406 16.375 -1.390625 C 14.625 -0.460938 12.585938 0 10.265625 0 L 1.953125 0 L 1.953125 -22.171875 Z M 9.921875 -4.671875 C 11.960938 -4.671875 13.550781 -5.226562 14.6875 -6.34375 C 15.820312 -7.46875 16.390625 -9.050781 16.390625 -11.09375 C 16.390625 -13.132812 15.820312 -14.722656 14.6875 -15.859375 C 13.550781 -16.992188 11.960938 -17.5625 9.921875 -17.5625 L 7.359375 -17.5625 L 7.359375 -4.671875 Z M 9.921875 -4.671875 "/></g></g></g><g fill="#304063" fill-opacity="1"><g transform="translate(247.685062, 257.137512)"><g><path d="M 7.359375 -17.84375 L 7.359375 -13.359375 L 14.59375 -13.359375 L 14.59375 -9.1875 L 7.359375 -9.1875 L 7.359375 -4.328125 L 15.546875 -4.328125 L 15.546875 0 L 1.953125 0 L 1.953125 -22.171875 L 15.546875 -22.171875 L 15.546875 -17.84375 Z M 7.359375 -17.84375 "/></g></g></g><g fill="#304063" fill-opacity="1"><g transform="translate(264.770987, 257.137512)"><g><path d="M 13.265625 0 L 8.65625 -8.375 L 7.359375 -8.375 L 7.359375 0 L 1.953125 0 L 1.953125 -22.171875 L 11.03125 -22.171875 C 12.78125 -22.171875 14.269531 -21.863281 15.5 -21.25 C 16.726562 -20.644531 17.644531 -19.8125 18.25 -18.75 C 18.863281 -17.6875 19.171875 -16.503906 19.171875 -15.203125 C 19.171875 -13.722656 18.753906 -12.40625 17.921875 -11.25 C 17.097656 -10.09375 15.875 -9.269531 14.25 -8.78125 L 19.359375 0 Z M 7.359375 -12.1875 L 10.703125 -12.1875 C 11.691406 -12.1875 12.4375 -12.429688 12.9375 -12.921875 C 13.4375 -13.410156 13.6875 -14.09375 13.6875 -14.96875 C 13.6875 -15.8125 13.4375 -16.472656 12.9375 -16.953125 C 12.4375 -17.441406 11.691406 -17.6875 10.703125 -17.6875 L 7.359375 -17.6875 Z M 7.359375 -12.1875 "/></g></g></g><g fill="#304063" fill-opacity="1"><g transform="translate(136.145262, 278.478791)"><g><path d="M 5.171875 -7.65625 L 5.171875 -6.84375 L 1.84375 -6.84375 L 1.84375 -4.265625 L 4.546875 -4.265625 L 4.546875 -3.453125 L 1.84375 -3.453125 L 1.84375 0 L 0.84375 0 L 0.84375 -7.65625 Z M 5.171875 -7.65625 "/></g></g></g><g fill="#304063" fill-opacity="1"><g transform="translate(142.426647, 278.478791)"><g><path d="M 1.84375 -7.65625 L 1.84375 0 L 0.84375 0 L 0.84375 -7.65625 Z M 1.84375 -7.65625 "/></g></g></g><g fill="#304063" fill-opacity="1"><g transform="translate(145.875082, 278.478791)"><g><path d="M 6.859375 0 L 5.859375 0 L 1.84375 -6.09375 L 1.84375 0 L 0.84375 0 L 0.84375 -7.671875 L 1.84375 -7.671875 L 5.859375 -1.578125 L 5.859375 -7.671875 L 6.859375 -7.671875 Z M 6.859375 0 "/></g></g></g><g fill="#304063" fill-opacity="1"><g transform="translate(154.34158, 278.478791)"><g><path d="M 3.234375 -7.65625 C 4.066406 -7.65625 4.785156 -7.5 5.390625 -7.1875 C 6.003906 -6.875 6.472656 -6.425781 6.796875 -5.84375 C 7.128906 -5.269531 7.296875 -4.59375 7.296875 -3.8125 C 7.296875 -3.03125 7.128906 -2.347656 6.796875 -1.765625 C 6.472656 -1.191406 6.003906 -0.753906 5.390625 -0.453125 C 4.785156 -0.148438 4.066406 0 3.234375 0 L 0.84375 0 L 0.84375 -7.65625 Z M 3.234375 -0.828125 C 4.222656 -0.828125 4.972656 -1.085938 5.484375 -1.609375 C 6.003906 -2.128906 6.265625 -2.863281 6.265625 -3.8125 C 6.265625 -4.757812 6.003906 -5.5 5.484375 -6.03125 C 4.960938 -6.570312 4.210938 -6.84375 3.234375 -6.84375 L 1.84375 -6.84375 L 1.84375 -0.828125 Z M 3.234375 -0.828125 "/></g></g></g><g fill="#304063" fill-opacity="1"><g transform="translate(162.851988, 278.478791)"><g><path d="M 1.84375 -7.65625 L 1.84375 0 L 0.84375 0 L 0.84375 -7.65625 Z M 1.84375 -7.65625 "/></g></g></g><g fill="#304063" fill-opacity="1"><g transform="translate(166.300424, 278.478791)"><g><path d="M 6.859375 0 L 5.859375 0 L 1.84375 -6.09375 L 1.84375 0 L 0.84375 0 L 0.84375 -7.671875 L 1.84375 -7.671875 L 5.859375 -1.578125 L 5.859375 -7.671875 L 6.859375 -7.671875 Z M 6.859375 0 "/></g></g></g><g fill="#304063" fill-opacity="1"><g transform="translate(174.766923, 278.478791)"><g><path d="M 6.640625 -5.4375 C 6.429688 -5.882812 6.125 -6.226562 5.71875 -6.46875 C 5.320312 -6.71875 4.851562 -6.84375 4.3125 -6.84375 C 3.78125 -6.84375 3.300781 -6.71875 2.875 -6.46875 C 2.445312 -6.226562 2.109375 -5.878906 1.859375 -5.421875 C 1.617188 -4.960938 1.5 -4.429688 1.5 -3.828125 C 1.5 -3.234375 1.617188 -2.707031 1.859375 -2.25 C 2.109375 -1.800781 2.445312 -1.453125 2.875 -1.203125 C 3.300781 -0.953125 3.78125 -0.828125 4.3125 -0.828125 C 5.0625 -0.828125 5.675781 -1.050781 6.15625 -1.5 C 6.644531 -1.945312 6.929688 -2.550781 7.015625 -3.3125 L 3.953125 -3.3125 L 3.953125 -4.125 L 8.078125 -4.125 L 8.078125 -3.359375 C 8.015625 -2.734375 7.8125 -2.15625 7.46875 -1.625 C 7.132812 -1.101562 6.691406 -0.691406 6.140625 -0.390625 C 5.597656 -0.0859375 4.988281 0.0625 4.3125 0.0625 C 3.601562 0.0625 2.957031 -0.101562 2.375 -0.4375 C 1.789062 -0.769531 1.328125 -1.234375 0.984375 -1.828125 C 0.640625 -2.421875 0.46875 -3.085938 0.46875 -3.828125 C 0.46875 -4.578125 0.640625 -5.25 0.984375 -5.84375 C 1.328125 -6.445312 1.789062 -6.914062 2.375 -7.25 C 2.957031 -7.582031 3.601562 -7.75 4.3125 -7.75 C 5.125 -7.75 5.84375 -7.546875 6.46875 -7.140625 C 7.101562 -6.734375 7.5625 -6.164062 7.84375 -5.4375 Z M 6.640625 -5.4375 "/></g></g></g><g fill="#304063" fill-opacity="1"><g transform="translate(184.05695, 278.478791)"><g/></g></g><g fill="#304063" fill-opacity="1"><g transform="translate(187.735974, 278.478791)"><g><path d="M 5.5625 -7.65625 L 5.5625 -6.84375 L 3.46875 -6.84375 L 3.46875 0 L 2.46875 0 L 2.46875 -6.84375 L 0.375 -6.84375 L 0.375 -7.65625 Z M 5.5625 -7.65625 "/></g></g></g><g fill="#304063" fill-opacity="1"><g transform="translate(194.423637, 278.478791)"><g><path d="M 6.75 -7.65625 L 6.75 0 L 5.75 0 L 5.75 -3.46875 L 1.84375 -3.46875 L 1.84375 0 L 0.84375 0 L 0.84375 -7.65625 L 1.84375 -7.65625 L 1.84375 -4.296875 L 5.75 -4.296875 L 5.75 -7.65625 Z M 6.75 -7.65625 "/></g></g></g><g fill="#304063" fill-opacity="1"><g transform="translate(202.769344, 278.478791)"><g><path d="M 1.84375 -6.84375 L 1.84375 -4.28125 L 4.640625 -4.28125 L 4.640625 -3.453125 L 1.84375 -3.453125 L 1.84375 -0.828125 L 4.96875 -0.828125 L 4.96875 0 L 0.84375 0 L 0.84375 -7.671875 L 4.96875 -7.671875 L 4.96875 -6.84375 Z M 1.84375 -6.84375 "/></g></g></g><g fill="#304063" fill-opacity="1"><g transform="translate(209.14955, 278.478791)"><g/></g></g><g fill="#304063" fill-opacity="1"><g transform="translate(212.828574, 278.478791)"><g><path d="M 10.46875 -7.65625 L 8.25 0 L 7.125 0 L 5.34375 -6.15625 L 3.5 0 L 2.390625 0.015625 L 0.25 -7.65625 L 1.3125 -7.65625 L 2.984375 -1.171875 L 4.828125 -7.65625 L 5.953125 -7.65625 L 7.71875 -1.1875 L 9.390625 -7.65625 Z M 10.46875 -7.65625 "/></g></g></g><g fill="#304063" fill-opacity="1"><g transform="translate(224.292726, 278.478791)"><g><path d="M 5.375 -1.703125 L 2.03125 -1.703125 L 1.421875 0 L 0.359375 0 L 3.125 -7.609375 L 4.28125 -7.609375 L 7.046875 0 L 5.984375 0 Z M 5.078125 -2.515625 L 3.703125 -6.375 L 2.3125 -2.515625 Z M 5.078125 -2.515625 "/></g></g></g><g fill="#304063" fill-opacity="1"><g transform="translate(232.440776, 278.478791)"><g><path d="M 6.203125 -7.65625 L 3.71875 -2.890625 L 3.71875 0 L 2.71875 0 L 2.71875 -2.890625 L 0.203125 -7.65625 L 1.3125 -7.65625 L 3.203125 -3.78125 L 5.09375 -7.65625 Z M 6.203125 -7.65625 "/></g></g></g></svg>