<svg xmlns="http://www.w3.org/2000/svg" xmlns:xlink="http://www.w3.org/1999/xlink" width="500" zoomAndPan="magnify" viewBox="0 0 375 374.999991" height="500" preserveAspectRatio="xMidYMid meet" version="1.0"><defs><clipPath id="31b4f68500"><path d="M 247 127.230469 L 252.847656 127.230469 L 252.847656 245 L 247 245 Z M 247 127.230469 " clip-rule="nonzero"/></clipPath></defs><path fill="#304063" d="M 170.097656 239.523438 L 162.691406 208.21875 C 164.617188 208.292969 167.019531 208.410156 170.039062 208.546875 L 170.039062 208.476562 C 170.714844 208.515625 171.375 208.566406 172.046875 208.605469 L 172.046875 208.636719 C 173.050781 208.683594 174.800781 208.796875 176.273438 208.933594 L 182.808594 236.511719 C 184.808594 244.902344 172.097656 247.953125 170.097656 239.523438 " fill-opacity="1" fill-rule="nonzero"/><g clip-path="url(#31b4f68500)"><path fill="#304063" d="M 252.625 127.242188 C 250.921875 128.6875 249.246094 130.054688 247.597656 131.386719 L 247.597656 241.34375 C 249.253906 242.492188 250.929688 243.65625 252.625 244.855469 L 252.625 127.242188 " fill-opacity="1" fill-rule="nonzero"/></g><path fill="#304063" d="M 160.175781 166.445312 L 160.175781 205.65625 C 144.835938 205.65625 145.320312 205.683594 144.316406 205.570312 C 129.191406 204.140625 122.589844 183.890625 133.25 172.1875 C 139.800781 164.984375 146.355469 166.445312 160.175781 166.445312 " fill-opacity="1" fill-rule="nonzero"/><path fill="#304063" d="M 245.589844 131.386719 L 245.589844 241.335938 C 220.660156 221.226562 197.46875 205.65625 162.183594 205.65625 L 162.183594 166.445312 L 164.617188 166.445312 C 195.507812 163.957031 215.222656 159.925781 245.589844 131.386719 " fill-opacity="1" fill-rule="nonzero"/></svg>