<svg xmlns="http://www.w3.org/2000/svg" xmlns:xlink="http://www.w3.org/1999/xlink" width="1920" zoomAndPan="magnify" viewBox="0 0 1440 809.999993" height="1080" preserveAspectRatio="xMidYMid meet" version="1.0"><defs><clipPath id="9177b19d11"><path d="M 598.664062 201.75 L 840.914062 201.75 L 840.914062 608.25 L 598.664062 608.25 Z M 598.664062 201.75 " clip-rule="nonzero"/></clipPath></defs><g clip-path="url(#9177b19d11)"><path fill="#f8fb5d" d="M 825.898438 608.035156 L 820.460938 598.613281 L 815.023438 608.035156 L 810.398438 608.035156 L 804.960938 598.613281 L 799.523438 608.035156 L 794.898438 608.035156 L 789.460938 598.613281 L 784.023438 608.035156 L 779.394531 608.035156 L 773.957031 598.613281 L 768.519531 608.035156 L 763.894531 608.035156 L 758.457031 598.613281 L 753.019531 608.035156 L 748.394531 608.035156 L 742.957031 598.613281 L 737.519531 608.035156 L 732.894531 608.035156 L 727.457031 598.613281 L 722.019531 608.035156 L 717.394531 608.035156 L 711.957031 598.613281 L 706.195312 608.035156 L 701.566406 608.035156 L 696.128906 598.613281 L 690.691406 608.035156 L 686.066406 608.035156 L 680.628906 598.613281 L 675.191406 608.035156 L 670.566406 608.035156 L 665.128906 598.613281 L 659.691406 608.035156 L 655.066406 608.035156 L 649.628906 598.613281 L 644.191406 608.035156 L 639.566406 608.035156 L 634.128906 598.613281 L 628.691406 608.035156 L 624.0625 608.035156 L 618.625 598.613281 L 612.863281 608.035156 L 608.238281 608.035156 L 602.800781 598.613281 L 598.664062 605.839844 L 598.664062 497.179688 C 598.824219 497.179688 598.90625 497.179688 598.988281 497.179688 C 610.1875 497.179688 619.277344 488.082031 619.277344 476.875 C 619.277344 465.667969 610.1875 456.570312 598.988281 456.570312 C 598.824219 456.570312 598.742188 456.570312 598.664062 456.570312 L 598.664062 202.945312 L 602.800781 210.171875 L 607.507812 201.96875 L 613.59375 201.96875 L 618.300781 210.171875 L 623.089844 201.96875 L 629.175781 201.96875 L 633.882812 210.171875 L 638.589844 201.96875 L 644.675781 201.96875 L 649.382812 210.171875 L 654.171875 201.96875 L 660.257812 201.96875 L 664.964844 210.171875 L 669.671875 201.96875 L 675.761719 201.96875 L 680.46875 210.171875 L 685.253906 201.96875 L 691.34375 201.96875 L 696.050781 210.171875 L 700.835938 201.96875 L 706.925781 201.96875 L 711.632812 210.171875 L 716.339844 201.96875 L 722.425781 201.96875 L 727.132812 210.171875 L 731.921875 201.96875 L 738.007812 201.96875 L 742.714844 210.171875 L 747.421875 201.96875 L 753.507812 201.96875 L 758.214844 210.171875 L 763.003906 201.96875 L 769.089844 201.96875 L 773.796875 210.171875 L 778.585938 201.96875 L 784.671875 201.96875 L 789.378906 210.171875 L 794.085938 201.96875 L 800.171875 201.96875 L 804.878906 210.171875 L 809.667969 201.96875 L 815.753906 201.96875 L 820.460938 210.171875 L 825.167969 201.96875 L 831.253906 201.96875 L 836.042969 210.171875 L 840.75 201.96875 L 840.914062 201.96875 L 840.914062 456.492188 C 840.75 456.492188 840.667969 456.492188 840.507812 456.492188 C 829.308594 456.492188 820.21875 465.585938 820.21875 476.792969 C 820.21875 488 829.308594 497.097656 840.507812 497.097656 C 840.667969 497.097656 840.75 497.097656 840.914062 497.097656 L 840.914062 607.058594 L 836.042969 598.613281 L 830.605469 608.035156 Z M 825.898438 608.035156 " fill-opacity="1" fill-rule="nonzero"/></g></svg>